<?xml version="1.0" encoding="utf-8"?>
<!-- Generator: Adobe Illustrator 25.2.0, SVG Export Plug-In . SVG Version: 6.00 Build 0)  -->
<svg version="1.1" id="Layer_1" xmlns="http://www.w3.org/2000/svg" xmlns:xlink="http://www.w3.org/1999/xlink" x="0px" y="0px"
	 viewBox="0 0 2000 480" style="enable-background:new 0 0 2000 480;" xml:space="preserve">
<style type="text/css">
	.st0{fill:#E6E7E8;}
	.st1{fill:none;stroke:#58595B;stroke-width:40;stroke-miterlimit:10;}
	.st2{fill:#EEEC81;}
	.st3{fill:#5BB1E3;}
	.st4{fill:#F0556E;}
	.st5{fill:#5CBD7A;}
	.st6{opacity:0.75;}
	.st7{fill:#5E5F5F;}
</style>
<g>
	<polygon class="st0" points="1995.84,475.87 1998.15,476.68 1996.31,477.7 1994.46,478.51 1992.62,481.15 1990.77,482.6
		1988.93,474.77 1987.08,483.94 1985.23,485.54 1983.39,475.35 1981.54,474.4 1979.7,479.27 1977.85,481.21 1976.01,485.38
		1974.16,482.01 1972.32,478.22 1970.47,481.91 1968.63,482.46 1966.78,474.67 1964.94,483.54 1963.09,483.63 1961.25,476.26
		1959.41,482.54 1957.56,482.49 1955.72,480.96 1953.87,483.27 1952.03,476.89 1950.18,483.59 1948.34,482.25 1946.5,483.51
		1944.65,480.59 1942.81,481.01 1940.96,474.43 1939.12,484.21 1937.28,483.01 1935.43,479.03 1933.59,474.44 1931.75,478.05
		1929.9,479.17 1928.06,474.82 1926.21,474.05 1924.37,485.18 1922.53,478.93 1920.68,484.04 1918.84,474.94 1917,478.47
		1915.16,482.24 1913.31,483.61 1911.47,481.06 1909.63,477.36 1907.78,482.29 1905.94,475.96 1904.1,476.99 1902.25,477.6
		1900.41,480.29 1898.57,477.2 1896.73,475.19 1894.88,478.47 1893.04,477.93 1891.2,477.54 1889.35,481.15 1887.51,478.55
		1885.67,479.41 1883.83,476.42 1881.98,483.12 1880.14,485.65 1878.3,480.67 1876.46,484.58 1874.61,483.48 1872.77,484.24
		1870.93,478 1869.09,475.57 1867.25,474.48 1865.4,477.64 1863.56,485.7 1861.72,479.06 1859.88,483.3 1858.03,476.48
		1856.19,474.77 1854.35,474.28 1852.51,481.33 1850.67,478.69 1848.82,474.43 1846.98,479.9 1845.14,474.42 1843.3,480.5
		1841.45,484.42 1839.61,475 1837.77,485.16 1835.93,479.76 1834.09,475.88 1832.24,475.07 1830.4,479.88 1828.56,474.98
		1826.72,476.73 1824.88,481.88 1823.03,479.36 1821.19,481.4 1819.35,479.48 1817.51,475.24 1815.67,474.15 1813.82,483.63
		1811.98,479.16 1810.14,477.21 1808.3,479.19 1806.46,477.99 1804.61,475.49 1802.77,485.05 1800.93,480.91 1799.09,476.21
		1797.24,482.96 1795.4,483.35 1793.56,479.31 1791.72,479.56 1789.88,478.83 1788.03,475.67 1786.19,474.27 1784.35,475.09
		1782.51,476.8 1780.66,482.1 1778.82,478.69 1776.98,475.09 1775.14,476.43 1773.29,479.04 1771.45,479.48 1769.61,483.3
		1767.77,475.86 1765.92,479.69 1764.08,477.19 1762.24,481.28 1760.4,478.11 1758.55,479.52 1756.71,477.21 1754.87,474.07
		1753.03,474.44 1751.18,477.16 1749.34,479.45 1747.5,484.88 1745.65,478.94 1743.81,475.07 1741.97,483.24 1740.13,477.85
		1738.28,478.08 1736.44,478.31 1734.6,482.46 1732.75,482.48 1730.91,477.09 1729.07,479.91 1727.22,479.72 1725.38,478.93
		1723.54,483.15 1721.69,475.09 1719.85,482.46 1718.01,485.79 1716.16,475.17 1714.32,480.72 1712.47,485.88 1710.63,481.41
		1708.79,476 1706.94,482.53 1705.1,477.5 1703.25,480.44 1701.41,477.12 1699.57,478.25 1697.72,480.32 1695.88,480.78
		1694.03,475.51 1692.19,479.19 1690.34,477.38 1688.5,482.32 1686.65,480.59 1684.81,482.57 1682.96,474.66 1681.12,484.98
		1679.27,475.25 1677.43,481.04 1675.58,485.13 1673.74,475.29 1671.89,476.71 1670.05,485.69 1668.2,474.85 1666.35,476.92
		1664.51,477.07 1662.66,484.93 1660.82,474.04 1658.97,482.56 1657.13,481.56 1655.28,483.74 1653.43,485.88 1651.59,474.54
		1649.74,484.21 1647.89,485.46 1646.05,480.08 1644.2,483.46 1642.35,478.95 1640.51,476.67 1638.66,475.97 1636.81,484.36
		1634.96,477.9 1633.12,481.44 1631.27,485.96 1629.42,475.7 1627.57,478.81 1625.73,481.38 1623.88,480.39 1622.03,480.52
		1620.19,485.49 1618.34,483.79 1616.49,480.54 1614.65,479.24 1612.8,475.06 1610.96,474.41 1609.11,484.63 1607.26,481.34
		1605.42,476.04 1603.57,476.97 1601.72,477.85 1599.88,481.5 1598.03,482.94 1596.19,480.13 1594.34,483.13 1592.5,483.33
		1590.65,479.44 1588.81,477.92 1586.96,483.59 1585.11,480.24 1583.27,475.88 1581.42,480.38 1579.58,485.57 1577.73,480.79
		1575.89,485.02 1574.04,476.45 1572.2,481.08 1570.35,479.8 1568.51,485.89 1566.67,481.68 1564.82,482.56 1562.98,474.81
		1561.13,479.67 1559.29,485.17 1557.44,484.77 1555.6,476.93 1553.75,483.38 1551.91,475.86 1550.07,478.87 1548.22,483.85
		1546.38,481.4 1544.53,482.92 1542.69,481.22 1540.85,484.05 1539,480.51 1537.16,474.25 1535.31,474.19 1533.47,483.78
		1531.63,484.51 1529.78,479.71 1527.94,485.55 1526.09,482.09 1524.25,474.11 1522.41,483.37 1520.56,475.38 1518.72,481.4
		1516.88,484.17 1515.03,475.11 1513.19,485.49 1511.34,482.76 1509.5,479.98 1507.66,482.07 1505.81,480.13 1503.97,481.52
		1502.13,484.55 1500.28,478.17 1498.44,476.81 1496.6,484.36 1494.75,478.78 1492.91,484.22 1491.06,480.27 1489.22,479.49
		1487.38,478.38 1485.53,480.87 1483.69,482.32 1481.85,477.05 1480,477.37 1478.16,482.88 1476.32,484.49 1474.47,479.26
		1472.63,482.11 1470.78,481.02 1468.94,482.37 1467.1,485.69 1465.25,481.68 1463.41,479.98 1461.57,476.53 1459.72,476.92
		1457.88,482.51 1456.03,482.7 1454.19,484.81 1452.35,482.1 1450.5,477.1 1448.66,481.47 1446.81,476.97 1444.97,481.72
		1443.13,474.76 1441.28,474.17 1439.44,482.49 1437.59,478.89 1435.75,476.25 1433.91,482.02 1432.06,480.43 1430.22,478.67
		1428.37,484.08 1426.53,479.27 1424.68,478.23 1422.84,480.7 1420.99,478.46 1419.15,475.15 1417.3,484.31 1415.46,476.54
		1413.61,474.81 1411.77,478.4 1409.92,481.33 1408.08,485.08 1406.23,484.53 1404.39,476.95 1402.54,477.04 1400.7,485.44
		1398.85,483.07 1397.01,474.88 1395.16,475.54 1393.32,484.71 1391.47,483.13 1389.62,479.23 1387.78,481.81 1385.93,483.85
		1384.09,480.82 1382.24,478.91 1380.39,478.52 1378.55,483.25 1376.7,480.67 1374.85,476.18 1373.01,475.77 1371.16,483.16
		1369.31,475.48 1367.47,480.98 1365.62,476.87 1363.77,476.59 1361.92,478.64 1360.08,480.57 1358.23,484.83 1356.38,485.74
		1354.53,485.07 1352.69,474.79 1350.84,476.59 1348.99,483.69 1347.14,482.46 1345.3,481.38 1343.45,481.81 1341.6,480.45
		1339.75,484.77 1337.91,481.67 1336.06,477.05 1334.21,482.86 1332.36,481.87 1330.52,475.03 1328.67,484.26 1326.82,475.74
		1324.98,481.09 1323.13,480.52 1321.29,476.5 1319.44,481.55 1317.59,474.77 1315.75,486 1313.9,479.65 1312.05,474.14
		1310.21,485.43 1308.36,483.2 1306.52,485.06 1304.67,479.66 1302.83,474.6 1300.98,481.02 1299.13,478.08 1297.29,484.35
		1295.44,483.18 1293.6,479.49 1291.75,485.17 1289.91,482.32 1288.06,477.14 1286.22,476.75 1284.37,476.59 1282.53,474.78
		1280.68,482.4 1278.84,479.47 1276.99,483.59 1275.15,478.19 1273.3,482.95 1271.46,480.95 1269.61,478.81 1267.77,484.56
		1265.92,485.85 1264.08,485.48 1262.23,474.91 1260.39,479.29 1258.54,479.18 1256.7,483.13 1254.85,474.24 1253.01,484.13
		1251.16,482.65 1249.32,477.52 1247.47,484.49 1245.63,478.26 1243.78,476.93 1241.94,482.77 1240.1,485 1238.25,477.27
		1236.41,483.36 1234.56,484.18 1232.72,474.98 1230.87,479.14 1229.03,484.13 1227.18,482.92 1225.34,476.02 1223.49,484.65
		1221.65,478.62 1219.8,475.05 1217.96,476.29 1216.11,481.73 1214.27,485.89 1212.42,485.44 1210.58,476.8 1208.73,480.88
		1206.89,477.22 1205.04,482.67 1203.2,483.07 1201.35,479.33 1199.51,480.37 1197.66,475.63 1195.81,482.65 1193.97,477.04
		1192.12,479.74 1190.28,485.91 1188.43,479.71 1186.59,482.08 1184.74,474.09 1182.89,480.45 1181.05,483.39 1179.2,484.74
		1177.36,483.67 1175.51,474.93 1173.66,484.8 1171.82,481.7 1169.97,484.86 1168.12,484.11 1166.28,475.63 1164.43,481.67
		1162.58,483.96 1160.74,481.58 1158.89,483.14 1157.04,477.86 1155.2,480.1 1153.35,477.31 1151.5,482.49 1149.65,474.65
		1147.81,481.2 1145.96,479.33 1144.11,485.21 1142.26,481.9 1140.41,478.71 1138.57,483.91 1136.72,484.8 1134.87,480.16
		1133.02,485.19 1131.17,476.7 1129.33,474.16 1127.48,474.21 1125.63,480.41 1123.78,481.07 1121.94,479.9 1120.09,482.39
		1118.24,478.05 1116.39,480.16 1114.55,480.29 1112.7,482.93 1110.85,474.63 1109.01,476.92 1107.16,475.79 1105.31,476.8
		1103.47,480.85 1101.62,482.57 1099.77,483.02 1097.93,484.35 1096.08,480.85 1094.23,481.78 1092.39,480.96 1090.54,479.18
		1088.7,483.69 1086.85,477.09 1085,476.43 1083.16,484.62 1081.31,476.46 1079.47,480.77 1077.62,477.54 1075.77,476.14
		1073.93,479.34 1072.08,484.61 1070.24,482.16 1068.39,483.1 1066.55,476.12 1064.7,480.02 1062.86,474.08 1061.01,485.22
		1059.16,480.32 1057.32,474.69 1055.47,485.97 1053.63,485.13 1051.78,474.63 1049.94,482.35 1048.09,481.78 1046.24,484.4
		1044.4,483.56 1042.55,479.92 1040.71,477.68 1038.86,480.35 1037.02,481.28 1035.17,476.4 1033.32,474.22 1031.48,475.16
		1029.63,478.43 1027.79,483.93 1025.94,474.68 1024.1,482.47 1022.25,477.72 1020.4,475.36 1018.56,474.57 1016.71,475.03
		1014.86,474.41 1013.02,478.73 1011.17,480.89 1009.33,474.59 1007.48,479.28 1005.63,485.06 1003.79,482.37 1001.94,475.61
		1000.09,476.19 998.24,475.69 996.4,477.26 994.55,475.98 992.7,483.9 990.86,485.74 989.01,479.74 987.16,474.18 985.31,478.26
		983.47,481.92 981.62,479.75 979.77,478.38 977.92,476.42 976.07,475.14 974.23,481.1 972.38,482.66 970.53,479.05 968.68,478.23
		966.83,484.82 964.98,479.82 963.14,476.48 961.29,477.23 959.44,482.45 957.59,478.22 955.74,478.5 953.9,482.52 952.05,482.41
		950.2,483.88 948.35,485.87 946.51,480.33 944.66,478.04 942.81,475.32 940.97,483.21 939.12,482.73 937.27,476.42 935.42,476.51
		933.58,479.37 931.73,484.82 929.88,484.67 928.04,479.23 926.19,483 924.34,479.21 922.5,476.71 920.65,476.33 918.81,475.16
		916.96,480.31 915.11,477.36 913.27,477.11 911.42,483.08 909.57,480.74 907.73,474.55 905.88,478.4 904.03,480.62 902.19,484.29
		900.34,476.65 898.5,478.51 896.65,483.6 894.8,477.82 892.96,485.66 891.11,483.55 889.26,481.71 887.42,474.33 885.57,475.28
		883.72,485.47 881.88,478.83 880.03,477.73 878.18,480.63 876.34,481.16 874.49,475.86 872.64,477.7 870.8,480.47 868.95,476.04
		867.1,475.68 865.26,480.83 863.41,478.95 861.56,481.46 859.71,476.28 857.87,482.61 856.02,479.6 854.17,485.33 852.32,483.88
		850.48,482.56 848.63,482.48 846.78,477.32 844.93,475.86 843.08,482.85 841.23,485.49 839.38,484.05 837.54,477.56 835.69,476.85
		833.84,476.45 831.99,479.56 830.14,478.52 828.29,475.95 826.45,481.13 824.6,474.56 822.75,484.37 820.9,485 819.05,485.9
		817.21,481.73 815.36,478.02 813.51,474.85 811.66,479.9 809.82,480.45 807.97,478.09 806.12,478.16 804.28,483.71 802.43,474.43
		800.58,480.42 798.73,485.12 796.89,485.29 795.04,477.51 793.19,482.71 791.35,481.21 789.5,474.08 787.65,485.08 785.81,485.84
		783.96,483.57 782.11,482.17 780.27,482.38 778.42,480.09 776.57,474.19 774.72,475.47 772.88,475.24 771.03,477.87 769.18,482.45
		767.34,483.51 765.49,474.48 763.64,481.03 761.8,475.24 759.95,475.14 758.1,479.39 756.25,480.43 754.41,475.14 752.56,476.6
		750.71,475.67 748.86,483.89 747.01,481 745.17,475.12 743.32,481.25 741.47,478.11 739.62,479.28 737.77,484.81 735.92,475.23
		734.08,476.71 732.23,480.54 730.38,485.67 728.53,483.53 726.68,476.04 724.83,485.48 722.98,480.78 721.13,476.4 719.29,482.8
		717.44,482.81 715.59,478.27 713.74,483.29 711.89,483.24 710.05,479.47 708.2,475.22 706.35,484.47 704.5,481.87 702.66,485.49
		700.81,478.14 698.96,484.69 697.11,479.51 695.27,477.78 693.42,481.1 691.58,484.32 689.73,482.62 687.89,481.48 686.05,484.18
		684.2,477.31 682.36,485.74 680.52,480.92 678.67,485.37 676.83,479.41 674.98,482.88 673.14,478.81 671.29,480.48 669.45,475.91
		667.6,485.82 665.76,476.01 663.91,476.25 662.06,484.4 660.22,485.16 658.37,474.04 656.52,479.3 654.68,477.8 652.83,475.95
		650.98,477.02 649.13,477.92 647.28,483.17 645.44,483.84 643.59,475.18 641.74,475.55 639.89,481.56 638.04,485.56 636.19,482.39
		634.34,484.76 632.5,484.35 630.65,483.7 628.8,478.14 626.95,480.76 625.11,483.38 623.26,485.59 621.41,482.22 619.57,475.1
		617.72,482.37 615.88,478.1 614.03,480.64 612.18,480.61 610.34,474.84 608.49,484.43 606.65,478.95 604.8,480.43 602.96,480.05
		601.12,482.53 599.27,485.6 597.43,483.87 595.58,478.22 593.74,475.22 591.89,485.49 590.05,482.17 588.21,476.57 586.36,479.76
		584.52,482.13 582.67,482.89 580.83,475.3 578.99,474.76 577.14,476.95 575.3,483.87 573.46,481.11 571.61,480.42 569.77,475.88
		567.92,481.61 566.08,481.61 564.24,485.8 562.39,475.78 560.55,482.97 558.7,479.81 556.86,483.14 555.02,485.01 553.17,483.03
		551.33,478.3 549.48,478.98 547.64,482.46 545.79,474.01 543.95,476.36 542.1,478.13 540.26,477.58 538.41,484.16 536.56,477.39
		534.72,478.14 532.87,479.62 531.03,483.38 529.18,474.06 527.33,482.32 525.48,478.51 523.64,478.58 521.79,480.57 519.94,485.16
		518.09,485.8 516.24,479.56 514.39,483.33 512.54,485.93 510.69,485.97 508.84,478.36 506.99,475.51 505.14,484.4 503.29,478.54
		501.45,482.84 499.6,482.78 497.75,478.62 495.9,485.3 494.05,483.56 492.2,481.66 490.36,478.47 488.51,475.08 486.66,478.57
		484.82,477.76 482.97,483.06 481.12,476.45 479.28,483.24 477.43,477.51 475.58,483.65 473.74,482.57 471.89,481.85 470.04,476.39
		468.2,476.09 466.35,478.89 464.51,475.89 462.66,485.44 460.82,484.7 458.97,485.68 457.12,477.85 455.28,479.11 453.43,485.27
		451.59,478.07 449.74,485.5 447.89,477.99 446.05,481.28 444.2,483.81 442.35,477.45 440.51,481.74 438.66,477.04 436.81,481.25
		434.97,476.94 433.12,477.64 431.27,481.76 429.42,481.75 427.58,484.55 425.73,480.03 423.88,480.3 422.03,479.03 420.18,483.03
		418.33,478.15 416.48,480.59 414.63,481.84 412.78,482.75 410.93,475.68 409.08,477.52 407.23,480.2 405.38,474.98 403.53,475.32
		401.68,479.18 399.83,477.7 397.98,477.62 396.13,483.91 394.28,483.37 392.44,476.19 390.59,480.4 388.74,475.29 386.89,478.22
		385.05,485.3 383.2,474.41 381.35,482.49 379.5,474.8 377.66,478.99 375.81,480.75 373.96,480.37 372.12,477.59 370.27,479.73
		368.42,475.3 366.57,482.32 364.72,484.7 362.88,476.55 361.03,484.36 359.18,476.28 357.33,483.68 355.48,477.32 353.63,484.13
		351.78,479.44 349.93,474.92 348.08,485.74 346.23,474.89 344.38,481.02 342.53,476.27 340.68,475.32 338.83,482.64 336.98,480.58
		335.13,481 333.28,474.75 331.43,475.32 329.58,475.08 327.73,478.86 325.88,477.08 324.03,474.19 322.18,482.23 320.34,476.15
		318.49,479.01 316.64,475.47 314.79,477.33 312.94,480.58 311.09,482.71 309.24,475.01 307.4,475.18 305.55,482.97 303.7,478.6
		301.85,474.9 300,478.23 298.15,485.51 296.3,481.27 294.45,476.91 292.6,474.54 290.75,476.5 288.9,481.2 287.04,485.5
		285.19,482.7 283.34,485.53 281.49,480.42 279.64,477.55 277.79,479.34 275.94,474.82 274.09,474.52 272.24,481.39 270.39,482.37
		268.54,476.73 266.69,477.6 264.85,482.16 263,481.52 261.15,481.22 259.3,476.17 257.45,476.43 255.6,477.38 253.75,483.22
		251.9,480.73 250.04,476.75 248.19,476.5 246.34,481.74 244.49,477.13 242.64,477.23 240.79,475.71 238.94,480.52 237.09,482.32
		235.24,480.88 233.39,475.25 231.54,474.31 229.69,482.64 227.84,479.61 225.99,481.93 224.13,482.39 222.28,483.2 220.43,475.87
		218.58,481.79 216.73,481.39 214.88,482.65 213.03,484.59 211.18,475.55 209.32,479.22 207.47,481.68 205.62,484.55 203.77,484.29
		201.92,474.01 200.07,483.73 198.22,485.85 196.37,474.76 194.52,479.88 192.67,476.19 190.82,478.48 188.96,483.58 187.11,483.46
		185.26,482.49 183.41,476.78 181.56,481.79 179.72,477.06 177.87,481.48 176.02,484.71 174.18,475.18 172.33,480.31 170.48,476.48
		168.63,476.88 166.78,477.62 164.93,480.15 163.07,474.29 161.22,483.98 159.37,480.91 157.52,477.1 155.67,476.67 153.82,481.8
		151.97,478.39 150.13,483.61 148.28,484.53 146.43,484.47 144.58,485.88 142.74,482.42 140.89,485.31 139.04,480.84 137.19,485.09
		135.34,478.79 133.49,483.9 131.64,483.04 129.78,485.07 127.93,474.49 126.08,475.39 124.23,481.85 122.37,482.93 120.52,485.33
		118.68,480.15 116.83,481.96 114.98,483.34 113.13,478.31 111.27,479.54 109.42,483.82 107.57,478.08 105.72,481.99 103.86,480.66
		102.01,477.15 100.16,485.03 98.31,482.26 96.45,476.48 94.6,480.78 92.75,476.04 90.9,477.04 89.05,481.7 87.19,477.89
		85.34,484.96 83.48,482.19 81.63,482.9 79.78,485.34 77.93,485.35 76.07,478.08 74.22,483.02 72.36,474.1 70.51,485 68.66,485.05
		66.8,478.92 64.95,475.64 63.1,474.96 61.24,481.42 59.39,480.07 57.53,483.03 55.68,476.11 53.82,484 51.97,479 50.12,481.85
		48.27,476.98 46.42,480.97 44.57,481.67 42.71,483.51 40.86,481.88 39,477.01 37.15,484.35 35.3,476.15 33.44,475 31.59,484.54
		29.73,481.16 27.88,477.69 26.02,483.61 24.16,480.95 22.31,484.86 20.45,474.21 18.59,485.9 16.74,477.73 14.88,477.09
		13.02,476.27 11.17,478.8 9.31,481.25 7.45,474.54 5.59,476.2 3.73,475.08 1.86,479.3 -2.39,482.41 0.76,478.16 -1.24,476.31
		-4.97,474.47 -0.41,472.63 4.76,470.78 2.64,468.94 -4.01,467.1 -1.04,465.25 3.91,463.41 5.44,461.57 -5.4,459.73 -4.93,457.88
		-5.4,456.04 0.81,454.2 -5,452.36 0.78,450.51 2.41,448.67 4.74,446.83 -2.22,444.99 -1.95,443.14 -1.17,441.3 -2.47,439.46
		0.39,437.62 -2.03,435.77 -2.98,433.93 2.77,432.09 -5.07,430.24 5.9,428.4 3.52,426.56 -5.89,424.71 -2.79,422.87 -0.62,421.03
		1.26,419.18 -1.86,417.34 3.36,415.49 -3.71,413.65 0.84,411.8 0.34,409.95 4.08,408.11 -2.88,406.26 -0.77,404.41 -1.54,402.57
		0.65,400.72 -1.26,398.87 3.09,397.02 2.14,395.18 -3.19,393.33 -4.59,391.49 3.8,389.64 -0.72,387.8 -5.38,385.95 -3.29,384.11
		1.2,382.26 -0.2,380.42 4.54,378.57 1.86,376.73 -0.57,374.89 -2.46,373.04 1.66,371.2 -3.8,369.35 -0.29,367.51 -3.34,365.67
		-5.6,363.82 5.36,361.98 -2.58,360.14 3.53,358.29 5.66,356.45 -3.2,354.6 -3.63,352.76 -1.68,350.91 0.63,349.07 0.34,347.22
		-0.32,345.38 3.34,343.53 5.37,341.69 -2.73,339.84 2.08,337.99 -1.66,336.15 -5.77,334.3 -2.33,332.45 2.99,330.6 3.8,328.75
		-5.68,326.91 -0.36,325.06 5.42,323.21 -1.55,321.37 -2.9,319.52 -2.07,317.68 -4.24,315.83 3.97,313.99 5.2,312.14 -0.24,310.3
		1.7,308.45 3.26,306.61 -3.33,304.76 -0.72,302.92 -4.69,301.07 1.05,299.23 2.73,297.38 0.42,295.54 2.45,293.69 1.42,291.84
		-2.93,290 3.75,288.15 5.63,286.31 -5.15,284.46 -2.92,282.61 -1.13,280.76 1.43,278.91 5.4,277.07 2.74,275.22 -1.9,273.37
		3.63,271.52 2.75,269.68 5.75,267.83 -3.05,265.98 5.15,264.14 5.61,262.29 -5.42,260.45 5.13,258.6 1.94,256.76 1.16,254.91
		-4.05,253.06 -2.37,251.22 -4.09,249.37 -4.82,247.52 -5.42,245.68 1.51,243.83 -3.86,241.98 -2.56,240.14 -0.5,238.29
		0.11,236.44 -4.71,234.59 5.08,232.74 2.99,230.9 2.13,229.05 0.55,227.2 4.4,225.35 4.25,223.51 5.41,221.66 0.14,219.82
		5.91,217.97 -0.05,216.12 -1.12,214.28 4.48,212.43 1.19,210.58 5.89,208.73 -3.59,206.89 -4.82,205.04 0.04,203.19 -0.39,201.34
		-5.96,199.49 5.01,197.64 0.82,195.8 4.43,193.95 0.45,192.1 5.92,190.26 4.34,188.41 0.78,186.56 -3.95,184.71 -3.76,182.87
		-3.91,181.02 5.04,179.17 -5.57,177.32 0.23,175.47 -4.62,173.63 2.08,171.79 1.87,169.95 -0.94,168.1 0.01,166.26 -0.54,164.42
		0.35,162.57 -1.64,160.73 -2.88,158.88 -2.41,157.03 1.82,155.18 -0.56,153.34 0.79,151.49 -0.13,149.64 -0.61,147.79
		-4.59,145.95 -0.87,144.1 0.96,142.26 -5.13,140.41 -0.85,138.57 -0.7,136.72 5.3,134.88 0.53,133.03 -3.6,131.19 5.3,129.34
		2.06,127.5 2.5,125.65 -0.94,123.8 -3.02,121.95 -3.47,120.1 -0.42,118.25 -4.25,116.4 -2.99,114.56 0.16,112.71 -3,110.86
		-1.1,109.02 -5.66,107.17 -4.57,105.32 -3.22,103.48 -2.69,101.63 2.87,99.78 5.5,97.93 -3.66,96.08 1.52,94.23 -0.12,92.38
		-3.07,90.53 0.9,88.69 2.87,86.84 -1.11,84.99 -2.5,83.14 1.45,81.29 -2.35,79.44 1.56,77.59 1.33,75.74 -4.24,73.89 5.18,72.04
		-0.78,70.19 -4.65,68.34 4.1,66.49 3.18,64.64 -3.26,62.79 3.26,60.94 1.36,59.09 -2.55,57.24 1.31,55.39 1.17,53.54 5.16,51.69
		4.92,49.84 -3.33,47.99 -3,46.14 1.45,44.28 -0.61,42.43 1.65,40.59 -4.33,38.74 -4.51,36.89 -5.14,35.05 5.38,33.19 -1.56,31.34
		1.57,29.49 3.73,27.64 -2.04,25.79 -1.75,23.94 -4.75,22.09 -3.06,20.24 -2.82,18.39 -0.58,16.53 1.69,14.68 -0.82,12.83
		1.89,10.97 -0.33,9.12 -4.28,7.26 2.31,5.41 0.62,3.56 -1.34,1.71 3.23,-0.15 -1.97,-2.01 2.21,-3.86 -4.81,-5.72 -4.39,-7.58
		3.63,-5.84 1.85,-8.54 3.69,-8.32 5.54,-6.76 7.38,-13.35 9.23,-10.88 11.07,-11.25 12.92,-9.49 14.77,-14.71 16.61,-12.59
		18.46,-11.55 20.3,-13.79 22.15,-12.19 23.99,-11.84 25.84,-11.1 27.68,-4.1 29.53,-8.88 31.37,-13.05 33.22,-10.84 35.06,-5.97
		36.91,-14.96 38.75,-13.71 40.59,-13.24 42.44,-13.6 44.28,-12.17 46.13,-10.96 47.97,-13.13 49.82,-7.19 51.66,-6.09 53.5,-13.13
		55.35,-15.02 57.19,-12.18 59.04,-14.86 60.88,-11.89 62.72,-12.56 64.57,-14.98 66.41,-5.4 68.25,-8.1 70.1,-4.14 71.94,-11.42
		73.79,-9.92 75.63,-10.96 77.47,-4.55 79.32,-14.41 81.16,-13.58 83,-7.74 84.84,-6.41 86.69,-9.01 88.53,-14.25 90.37,-15.41
		92.22,-7.43 94.06,-5.54 95.9,-13.17 97.75,-7.65 99.59,-9.21 101.43,-10.85 103.27,-13.42 105.12,-8.61 106.96,-7.57 108.8,-8.33
		110.65,-13.06 112.49,-14.65 114.33,-12.28 116.17,-6.81 118.02,-9.87 119.86,-11.65 121.7,-7.94 123.54,-9.05 125.39,-4.45
		127.23,-13.09 129.07,-14.09 130.91,-7.82 132.75,-6.69 134.6,-14.36 136.44,-12.24 138.28,-4.23 140.12,-8.36 141.97,-4.67
		143.81,-5.74 145.65,-12.58 147.49,-10.82 149.33,-3.88 151.18,-4.52 153.02,-10.06 154.86,-10.59 156.7,-13.71 158.55,-8.28
		160.39,-11.75 162.23,-7.8 164.07,-6.65 165.91,-8.29 167.76,-13.3 169.6,-12.23 171.44,-9.95 173.28,-9.56 175.12,-5.58
		176.97,-4.01 178.81,-12.05 180.65,-9.13 182.49,-7.75 184.33,-3.63 186.18,-12.88 188.02,-4.63 189.86,-11.12 191.7,-4.38
		193.54,-5.36 195.39,-4.75 197.23,-8.12 199.07,-5.87 200.91,-5.49 202.76,-7.58 204.6,-10.86 206.44,-9.65 208.28,-14.36
		210.12,-14.7 211.97,-5.48 213.81,-11.78 215.65,-5.58 217.49,-10.89 219.34,-10.92 221.18,-9.11 223.02,-13.34 224.86,-13.36
		226.71,-8.17 228.55,-6.38 230.39,-6.59 232.23,-12.3 234.08,-4.72 235.92,-4.78 237.76,-8.69 239.6,-14.66 241.45,-12.24
		243.29,-6.93 245.13,-3.86 246.97,-13.15 248.82,-10.16 250.66,-7.22 252.5,-5.9 254.35,-8.11 256.19,-9.33 258.03,-14.33
		259.87,-10.43 261.72,-12.3 263.56,-12.26 265.4,-14.71 267.25,-14.15 269.09,-10.44 270.93,-8.16 272.78,-8.16 274.62,-14.36
		276.46,-7.39 278.31,-15.37 280.15,-12.01 281.99,-4.31 283.84,-4.72 285.68,-9.38 287.53,-9.17 289.37,-9.5 291.21,-3.8
		293.06,-12.83 294.9,-12.58 296.75,-12.54 298.59,-6.96 300.43,-6.03 302.28,-5.23 304.12,-3.8 305.97,-6.93 307.81,-6.13
		309.66,-12.33 311.5,-5.29 313.35,-8.18 315.19,-9.48 317.04,-4.82 318.88,-5.12 320.73,-10.13 322.57,-13.58 324.42,-10.83
		326.26,-9.89 328.11,-8.11 329.95,-4.8 331.8,-14.06 333.64,-8.49 335.49,-13.98 337.34,-8.5 339.18,-4.07 341.03,-6.55
		342.87,-8.2 344.72,-3.72 346.57,-9.12 348.41,-8.96 350.26,-5.24 352.11,-14.9 353.95,-8.68 355.8,-13.94 357.65,-12.3
		359.49,-15.04 361.34,-12.27 363.19,-3.84 365.04,-15.11 366.88,-12.6 368.73,-9.68 370.58,-8.23 372.43,-10.73 374.27,-4.56
		376.12,-7.33 377.97,-8.53 379.81,-5.19 381.66,-11.97 383.51,-11.69 385.35,-11.63 387.2,-7.92 389.04,-12.49 390.89,-6.66
		392.74,-13.82 394.58,-12.76 396.43,-10.06 398.28,-13.68 400.12,-14.44 401.97,-9.48 403.81,-8.38 405.66,-5.64 407.5,-4.66
		409.35,-3.67 411.19,-8.27 413.04,-15.21 414.89,-6.62 416.73,-4.85 418.58,-11.53 420.42,-4.69 422.27,-4.5 424.11,-8.72
		425.96,-7.53 427.8,-6.14 429.65,-10.77 431.49,-5.39 433.33,-8.94 435.18,-14.69 437.02,-13.03 438.87,-3.48 440.71,-5
		442.56,-11.89 444.4,-8.77 446.25,-5.97 448.09,-6.69 449.93,-10.02 451.78,-5.53 453.62,-11.67 455.47,-4.19 457.31,-14.16
		459.15,-13.75 461,-14.14 462.84,-10.91 464.69,-9.02 466.53,-5.65 468.37,-12.03 470.22,-14.67 472.06,-11.19 473.91,-11.67
		475.75,-14.65 477.59,-10.16 479.44,-5.97 481.28,-3.67 483.12,-8.65 484.97,-5.24 486.81,-13.43 488.66,-12.37 490.5,-13.65
		492.34,-7.37 494.19,-6.61 496.03,-8.36 497.87,-12.85 499.72,-14.56 501.56,-10.87 503.4,-6.1 505.25,-6.25 507.09,-5.25
		508.94,-11.07 510.78,-4.23 512.62,-8.56 514.47,-11.4 516.31,-7.67 518.15,-5.59 520,-11.61 521.84,-5.26 523.68,-4.39
		525.53,-6.34 527.37,-9.11 529.22,-8.22 531.06,-4.5 532.9,-5.57 534.75,-7.61 536.59,-7.95 538.43,-14.5 540.28,-8.62
		542.12,-13.67 543.97,-8.42 545.81,-12.17 547.65,-3.83 549.5,-4.92 551.34,-14.96 553.19,-9.7 555.03,-5.63 556.87,-7.06
		558.72,-14.96 560.56,-12.95 562.41,-11.78 564.25,-8.59 566.09,-8.38 567.94,-7.64 569.78,-3.85 571.63,-15.13 573.47,-4.57
		575.32,-13.26 577.16,-6.47 579.01,-11.23 580.85,-3.73 582.7,-11.81 584.54,-10.55 586.39,-11.6 588.23,-11.39 590.08,-7.91
		591.92,-4.15 593.77,-5.53 595.61,-8.31 597.46,-3.53 599.3,-12 601.15,-12.44 602.99,-8.15 604.84,-11.84 606.68,-15.34
		608.53,-4.44 610.38,-5.22 612.22,-13.42 614.07,-13.32 615.91,-9.72 617.76,-4.86 619.61,-15.36 621.45,-13.33 623.3,-8.74
		625.15,-10.67 626.99,-8.4 628.84,-7.74 630.69,-8.97 632.53,-4.97 634.38,-6.85 636.23,-12.26 638.08,-6.18 639.92,-12.99
		641.77,-14.16 643.62,-7.45 645.47,-14.04 647.31,-11.03 649.16,-15.07 651.01,-14.66 652.86,-14.05 654.7,-9.02 656.55,-5.17
		658.4,-3.83 660.25,-7.47 662.09,-7.87 663.94,-14.8 665.79,-8.48 667.64,-9.34 669.48,-6.01 671.33,-6.11 673.18,-13.3
		675.02,-10.31 676.87,-7.3 678.71,-8.14 680.56,-13.68 682.41,-10.28 684.25,-13.07 686.1,-8.92 687.95,-4.6 689.79,-5.54
		691.64,-10.23 693.48,-5.24 695.33,-10.23 697.17,-9.53 699.02,-10.11 700.87,-5.24 702.71,-7.58 704.56,-12.88 706.4,-6.37
		708.25,-12.48 710.09,-11.67 711.94,-10.73 713.78,-14.21 715.63,-14.42 717.47,-7.49 719.32,-15.16 721.16,-11.42 723.01,-4.28
		724.85,-8.18 726.7,-12.63 728.54,-3.57 730.39,-10.99 732.23,-8.81 734.08,-12.21 735.92,-9.7 737.77,-10.27 739.61,-7.1
		741.46,-12.7 743.3,-10.94 745.15,-3.63 746.99,-4.51 748.84,-10.18 750.68,-6.36 752.53,-6.09 754.37,-14.99 756.22,-6.23
		758.06,-14.53 759.9,-13.7 761.75,-6.86 763.59,-6.4 765.44,-9.03 767.28,-3.54 769.13,-9.16 770.97,-4.97 772.82,-10.43
		774.66,-13.17 776.51,-7.76 778.35,-5.79 780.2,-10.99 782.04,-4.39 783.89,-6.75 785.73,-15.19 787.58,-14.53 789.42,-14.15
		791.27,-12.45 793.11,-8.66 794.96,-11.86 796.8,-9.57 798.65,-15.25 800.49,-11.33 802.34,-5.98 804.19,-9.85 806.03,-14.92
		807.88,-6.09 809.72,-3.75 811.57,-11.95 813.41,-8.55 815.26,-13.1 817.11,-4.04 818.95,-7.06 820.8,-10.61 822.64,-6.8
		824.49,-6.97 826.34,-8.5 828.18,-12.48 830.03,-14.06 831.88,-14.56 833.72,-6.15 835.57,-10.77 837.42,-11.51 839.26,-11.14
		841.11,-8.11 842.96,-11.9 844.8,-13.79 846.65,-13.89 848.5,-12.56 850.35,-10.22 852.19,-6.77 854.04,-13.93 855.89,-10.74
		857.74,-15.17 859.59,-9.42 861.43,-6.28 863.28,-7.76 865.13,-4.67 866.98,-14.36 868.83,-13.16 870.67,-6.24 872.52,-12.29
		874.37,-6.83 876.22,-10.83 878.06,-11.73 879.91,-9.5 881.76,-4.12 883.61,-12.55 885.45,-4.52 887.3,-6.36 889.15,-15.17
		890.99,-13.9 892.84,-9 894.69,-8.06 896.53,-6.32 898.38,-4.84 900.23,-13.3 902.07,-10.67 903.92,-13.04 905.77,-7.01
		907.61,-14.07 909.46,-9.48 911.3,-3.53 913.15,-4.46 915,-11.36 916.84,-11.27 918.69,-6.06 920.53,-14.31 922.38,-12.42
		924.23,-11.97 926.07,-9.95 927.92,-9.72 929.76,-13.27 931.61,-14.96 933.45,-7.99 935.3,-13.46 937.14,-5 938.99,-3.57
		940.84,-14.29 942.68,-14.51 944.53,-9.6 946.37,-14.88 948.22,-5.33 950.06,-14.08 951.91,-12.21 953.76,-12.51 955.6,-14.14
		957.45,-9.4 959.29,-10.7 961.14,-5.52 962.98,-13.46 964.83,-5.64 966.68,-13.39 968.52,-14.97 970.37,-9.81 972.21,-8.36
		974.06,-13.88 975.9,-11.33 977.75,-8.22 979.6,-14.9 981.44,-13.77 983.29,-12.38 985.14,-5.69 986.98,-4.95 988.83,-14.19
		990.67,-8.69 992.52,-9.02 994.37,-8.87 996.21,-11.01 998.06,-14.24 999.91,-7.12 1001.76,-13.94 1003.6,-10.64 1005.45,-5.51
		1007.3,-13.46 1009.14,-15.14 1010.99,-5.16 1012.84,-10.38 1014.69,-12.74 1016.53,-6.52 1018.38,-7.91 1020.23,-14.26
		1022.08,-11.44 1023.93,-3.89 1025.77,-4.11 1027.62,-4.79 1029.47,-14.35 1031.32,-14.94 1033.17,-13.62 1035.02,-14.51
		1036.86,-6.76 1038.71,-11.28 1040.56,-12.62 1042.41,-14.88 1044.26,-4.3 1046.1,-10.73 1047.95,-7.06 1049.8,-12.99
		1051.65,-10.25 1053.49,-12.35 1055.34,-4.81 1057.19,-12.33 1059.03,-14.28 1060.88,-12.33 1062.73,-11.39 1064.58,-9.12
		1066.42,-4.34 1068.27,-11.47 1070.12,-12.09 1071.96,-9.34 1073.81,-5.75 1075.66,-14.27 1077.5,-5.41 1079.35,-10.08
		1081.19,-11.22 1083.04,-14.27 1084.89,-14.7 1086.73,-14.43 1088.58,-7.77 1090.43,-13.86 1092.27,-10.79 1094.12,-11.34
		1095.97,-12.4 1097.81,-13.02 1099.66,-8.66 1101.5,-13.79 1103.35,-10.35 1105.2,-15.32 1107.04,-6.79 1108.89,-14.72
		1110.74,-7.87 1112.58,-9.59 1114.43,-8.29 1116.28,-14 1118.12,-9.33 1119.97,-11.53 1121.82,-8.5 1123.66,-11.91 1125.51,-10.64
		1127.36,-3.86 1129.2,-8.13 1131.05,-14.38 1132.9,-10.71 1134.74,-15.11 1136.59,-8.57 1138.44,-5.54 1140.29,-12.94
		1142.13,-7.64 1143.98,-12.51 1145.83,-4.77 1147.68,-6.56 1149.52,-7.15 1151.37,-10.47 1153.22,-7.74 1155.07,-7.75
		1156.92,-12.09 1158.77,-12.45 1160.62,-12.82 1162.46,-6.32 1164.31,-7.36 1166.16,-9.19 1168.01,-4.14 1169.86,-5.94
		1171.71,-4.65 1173.55,-6.23 1175.4,-8.81 1177.25,-3.7 1179.1,-13.77 1180.95,-3.49 1182.79,-3.48 1184.64,-12.9 1186.49,-11.45
		1188.34,-15.28 1190.18,-3.91 1192.03,-11.02 1193.88,-3.85 1195.72,-3.62 1197.57,-4.59 1199.42,-12.61 1201.27,-9.25
		1203.11,-11.75 1204.96,-6.02 1206.81,-5.08 1208.65,-9.23 1210.5,-10.61 1212.35,-12.98 1214.19,-7.27 1216.04,-6.83
		1217.89,-9.43 1219.73,-13.04 1221.58,-12.53 1223.43,-11.86 1225.28,-14.92 1227.12,-10.89 1228.97,-4.42 1230.82,-7.96
		1232.66,-6.29 1234.51,-7.67 1236.36,-10.68 1238.2,-9.65 1240.05,-14.73 1241.9,-12.81 1243.75,-11.52 1245.59,-11.77
		1247.44,-6.41 1249.29,-13.69 1251.14,-3.94 1252.99,-11.7 1254.83,-5.67 1256.68,-14.54 1258.53,-14.1 1260.38,-14.72
		1262.23,-13.51 1264.08,-9.82 1265.92,-11.58 1267.77,-10.91 1269.62,-14.04 1271.47,-3.73 1273.32,-9.32 1275.17,-13.96
		1277.02,-7.9 1278.87,-12.92 1280.71,-15.19 1282.56,-6.2 1284.41,-5.53 1286.26,-7.96 1288.11,-11.12 1289.95,-12.33 1291.8,-15
		1293.65,-6.89 1295.5,-9.47 1297.34,-14.16 1299.19,-5.51 1301.04,-12.24 1302.89,-14.8 1304.73,-12.73 1306.58,-13.27
		1308.42,-4.88 1310.27,-12.62 1312.11,-10.22 1313.95,-10.7 1315.8,-10.07 1317.64,-5.18 1319.48,-14.04 1321.33,-5.77
		1323.17,-5.14 1325.02,-12.17 1326.86,-15.34 1328.71,-4.45 1330.55,-8.02 1332.4,-8.12 1334.24,-8.56 1336.09,-15.06
		1337.94,-8.29 1339.78,-14.39 1341.63,-4.15 1343.48,-15.44 1345.32,-7.73 1347.17,-5.73 1349.02,-4.95 1350.87,-13.76
		1352.72,-12.14 1354.56,-5.11 1356.41,-6.65 1358.26,-3.95 1360.11,-13.49 1361.96,-14.9 1363.81,-4.59 1365.66,-6.49
		1367.5,-7.98 1369.35,-14.08 1371.2,-7.37 1373.05,-7.56 1374.89,-5.27 1376.74,-5.47 1378.59,-3.58 1380.43,-11.36
		1382.28,-14.34 1384.12,-6.85 1385.97,-14.06 1387.82,-6.42 1389.66,-9.26 1391.51,-5.78 1393.35,-8.1 1395.2,-12.96
		1397.04,-4.35 1398.88,-12.1 1400.73,-7.83 1402.57,-11.94 1404.42,-13.96 1406.26,-11.83 1408.11,-15.36 1409.95,-6.86
		1411.79,-14.48 1413.64,-4.54 1415.48,-14.84 1417.33,-7.07 1419.17,-7.67 1421.01,-11.86 1422.86,-8.01 1424.7,-3.56
		1426.54,-14.89 1428.39,-11.23 1430.23,-11.47 1432.08,-14 1433.92,-5.56 1435.76,-6.49 1437.61,-10.09 1439.45,-4 1441.3,-9.17
		1443.14,-9.47 1444.98,-11 1446.83,-13.42 1448.67,-6.24 1450.52,-12.27 1452.36,-12.41 1454.21,-6.55 1456.05,-3.68
		1457.9,-12.13 1459.74,-7.77 1461.59,-15.22 1463.44,-9.77 1465.28,-12.86 1467.13,-7.5 1468.97,-9.45 1470.82,-14.33
		1472.67,-4.54 1474.52,-6.85 1476.36,-4.77 1478.21,-13.23 1480.06,-13.59 1481.91,-14.02 1483.76,-8.86 1485.61,-14.88
		1487.46,-8.83 1489.31,-7.22 1491.16,-4.62 1493.01,-7.76 1494.86,-7.61 1496.71,-6.7 1498.55,-4.3 1500.4,-6.73 1502.25,-11.78
		1504.1,-10.45 1505.95,-11.75 1507.8,-13.11 1509.64,-9.44 1511.49,-3.72 1513.34,-11.63 1515.18,-6.23 1517.03,-8.21
		1518.88,-6.84 1520.72,-14.3 1522.57,-5.67 1524.42,-12.14 1526.26,-11.69 1528.11,-11.56 1529.95,-9.48 1531.8,-3.82
		1533.65,-11.14 1535.49,-3.8 1537.34,-4.04 1539.18,-11.88 1541.03,-8.02 1542.88,-13.64 1544.72,-6.59 1546.57,-13.53
		1548.41,-3.69 1550.26,-6.9 1552.11,-12.07 1553.95,-4.09 1555.8,-8.88 1557.65,-7.7 1559.49,-9.52 1561.34,-7.4 1563.19,-5.06
		1565.03,-4.64 1566.88,-11.4 1568.73,-11.01 1570.58,-6.6 1572.42,-6.88 1574.27,-9.35 1576.12,-7.92 1577.97,-8.31
		1579.82,-15.12 1581.67,-3.52 1583.52,-8.86 1585.37,-4.59 1587.22,-14.1 1589.07,-7.11 1590.92,-14.91 1592.77,-8.59
		1594.62,-3.8 1596.47,-5.3 1598.32,-6.4 1600.17,-5.78 1602.02,-8.02 1603.87,-10.04 1605.72,-9.86 1607.56,-10.32 1609.41,-5.21
		1611.26,-10.04 1613.11,-11.07 1614.95,-14.52 1616.8,-8.56 1618.65,-5.39 1620.5,-3.82 1622.34,-11.89 1624.19,-12.14
		1626.04,-10.04 1627.88,-14.6 1629.73,-4.03 1631.58,-5.88 1633.43,-7.74 1635.28,-8.72 1637.12,-3.82 1638.97,-4.47 1640.82,-8.6
		1642.67,-10.09 1644.52,-5.28 1646.37,-4.84 1648.22,-11.78 1650.07,-4.25 1651.92,-4.41 1653.77,-9.3 1655.62,-9.62
		1657.47,-4.67 1659.32,-5.46 1661.17,-5 1663.02,-6.63 1664.87,-8.21 1666.72,-12.95 1668.57,-12.77 1670.42,-8.63 1672.27,-3.54
		1674.12,-3.86 1675.97,-12.1 1677.82,-3.58 1679.66,-10.4 1681.51,-12.35 1683.36,-11.23 1685.21,-9.29 1687.06,-13.66
		1688.91,-9.34 1690.76,-9.06 1692.6,-5.47 1694.45,-9.94 1696.3,-9.37 1698.15,-10.02 1700,-5.52 1701.85,-6.78 1703.7,-15.18
		1705.55,-6.44 1707.4,-13.41 1709.25,-12.14 1711.1,-4.21 1712.96,-5.68 1714.81,-12.98 1716.66,-10.11 1718.51,-11.58
		1720.36,-4.45 1722.21,-11.12 1724.06,-8.86 1725.91,-9.76 1727.76,-11.69 1729.61,-6.13 1731.46,-12.4 1733.31,-11.52
		1735.15,-10.4 1737,-10.71 1738.85,-14.39 1740.7,-12.24 1742.55,-7.71 1744.4,-12.83 1746.25,-9.56 1748.1,-6.24 1749.96,-3.73
		1751.81,-4 1753.66,-12.8 1755.51,-5.35 1757.36,-4.31 1759.21,-6.29 1761.06,-9.75 1762.91,-6.1 1764.76,-4.44 1766.61,-11.29
		1768.46,-8.75 1770.31,-13.97 1772.16,-7.2 1774.01,-14.7 1775.86,-10.02 1777.72,-11.04 1779.57,-5.13 1781.42,-11.65
		1783.27,-13.95 1785.12,-11.34 1786.97,-12.96 1788.82,-4.25 1790.68,-4.4 1792.53,-6.5 1794.38,-6.44 1796.23,-6.76 1798.08,-4.9
		1799.93,-5.71 1801.78,-12.3 1803.63,-3.67 1805.48,-11.52 1807.33,-8.83 1809.18,-12.07 1811.04,-14.17 1812.89,-8.37
		1814.74,-8.52 1816.59,-12.77 1818.44,-14.28 1820.28,-13.69 1822.13,-4.22 1823.98,-7.23 1825.82,-14.1 1827.67,-14.15
		1829.52,-4.05 1831.37,-9 1833.22,-5.52 1835.07,-11.55 1836.93,-9.12 1838.78,-4.65 1840.63,-5.75 1842.48,-3.5 1844.33,-4.64
		1846.18,-8.44 1848.03,-8.06 1849.87,-14.17 1851.72,-12.15 1853.57,-14.06 1855.42,-5.1 1857.26,-8.93 1859.11,-11.32
		1860.96,-4.57 1862.81,-4.24 1864.66,-12.63 1866.51,-13.56 1868.36,-7.15 1870.22,-8.18 1872.07,-13.62 1873.92,-12.01
		1875.77,-5.7 1877.63,-12.25 1879.48,-9.16 1881.32,-6.1 1883.17,-10.1 1885.02,-3.89 1886.87,-14.27 1888.73,-5.16 1890.58,-11.1
		1892.43,-3.54 1894.28,-5.75 1896.14,-5.47 1897.99,-11.53 1899.84,-12.31 1901.69,-7.41 1903.55,-12.96 1905.4,-6.85
		1907.25,-13.98 1909.1,-12.22 1910.95,-10.24 1912.81,-9.97 1914.66,-4.46 1916.52,-7.33 1918.37,-11.98 1920.22,-4.98
		1922.07,-4.32 1923.93,-13.88 1925.78,-11.28 1927.64,-8.91 1929.49,-3.61 1931.34,-11.39 1933.2,-9.34 1935.05,-6.25
		1936.9,-10.32 1938.76,-6.63 1940.61,-14.67 1942.47,-7.2 1944.32,-8.09 1946.18,-8.89 1948.03,-12.43 1949.88,-6.4 1951.73,-6.22
		1953.58,-3.52 1955.43,-6.12 1957.29,-9.12 1959.14,-11.6 1961,-9.46 1962.85,-12.02 1964.7,-9.81 1966.56,-9.83 1968.41,-12.92
		1970.27,-12.88 1972.12,-5.77 1973.98,-12.95 1975.84,-6.85 1977.69,-14.98 1979.55,-14.85 1981.41,-9.07 1983.26,-12.12
		1985.12,-11.21 1986.98,-12.15 1988.83,-15.41 1990.69,-10.38 1992.55,-6.4 1994.41,-6.49 1996.27,-10.01 1998.14,-12.39
		2004.08,-13.57 1994.13,-7.6 1994.06,-5.75 2002.27,-3.91 1999.89,-2.07 1995.2,-0.22 2004.98,1.62 2002.21,3.46 2002.02,5.3
		1994.24,7.15 1995.82,8.99 1997.84,10.83 2004.45,12.68 2002.37,14.52 2001.37,16.36 2005.11,18.2 2005.12,20.04 2002.49,21.89
		2002.62,23.73 1994.67,25.57 1994.54,27.41 1994.94,29.26 2005.58,31.1 2002.63,32.94 1995.48,34.78 2001.12,36.63 1998.49,38.47
		1999.74,40.31 2000,42.16 2005.89,44 1994.74,45.85 1995.21,47.69 2002.06,49.53 2005.66,51.38 2002.85,53.22 2004.84,55.07
		1994.26,56.91 1999.04,58.76 1998.9,60.61 1999.37,62.45 1994.84,64.3 2002.89,66.15 1994.86,67.99 2002.98,69.84 1997.57,71.69
		2002.75,73.53 2002.05,75.38 2001.78,77.23 1994.72,79.07 2004.34,80.92 1995.22,82.76 2000.16,84.61 2001.6,86.45 1999.21,88.3
		2000.63,90.14 2004.88,91.98 2004.95,93.83 1999.27,95.67 2005.42,97.52 1998.8,99.36 2003.65,101.2 2001.13,103.05
		2003.65,104.89 1996.04,106.74 2004.06,108.58 1999.14,110.42 1996.57,112.27 2000.59,114.11 1994.35,115.96 2003.98,117.8
		1998.16,119.65 1996.1,121.49 2000.29,123.34 2005.64,125.18 1995.69,127.03 2004.81,128.87 1994.77,130.72 2005.76,132.57
		2000.35,134.41 1995.5,136.26 2003.48,138.11 1998.11,139.96 2005.54,141.8 2002.24,143.65 1999.12,145.5 1998.17,147.34
		2000.09,149.19 2005.93,151.04 1998.51,152.88 2000.58,154.73 1997.84,156.57 2000.47,158.42 2002.94,160.26 2001.43,162.11
		2002.93,163.95 1999.38,165.8 2004.24,167.64 2000.23,169.49 2004.14,171.33 1996.82,173.18 1996.76,175.02 1998.42,176.87
		2001.72,178.71 1998.8,180.56 2001.89,182.41 2005.35,184.25 2004.08,186.1 1994.62,187.95 1997.24,189.8 1996.49,191.64
		1997.61,193.49 1996.16,195.34 1997.01,197.19 2002.89,199.03 1995.19,200.88 2003.16,202.73 1995.9,204.57 2000.66,206.42
		1998.59,208.27 1998.12,210.11 1998.87,211.96 1995.38,213.8 2004.22,215.65 1996.96,217.5 2005.25,219.34 1994.35,221.19
		1995.58,223.03 1995.06,224.88 2001.39,226.73 1997.45,228.57 2003.87,230.42 2002.7,232.27 1998.46,234.12 1999.63,235.97
		1999.93,237.82 1997.77,239.66 2001.55,241.51 2003.78,243.36 1999.15,245.2 2001.55,247.05 1994.57,248.9 2000.95,250.74
		1998.5,252.59 1997.52,254.44 1995.33,256.28 2000.65,258.13 1995.17,259.98 1995.02,261.83 2001.11,263.67 1996.37,265.52
		1994.18,267.37 2005.66,269.22 1999.14,271.07 1996.85,272.91 2002.37,274.76 1994.34,276.61 1994.33,278.46 1996.3,280.3
		1999.98,282.15 2004.76,284 2000.71,285.84 2002.2,287.69 1995.43,289.54 2005.3,291.39 1996.81,293.24 2005.73,295.09
		1998.51,296.93 2003.17,298.77 1995.53,300.61 2001.55,302.45 2005.44,304.3 1996.63,306.14 2000.69,307.99 2001.97,309.83
		1999.09,311.68 2001.2,313.53 2000.79,315.37 1996.23,317.22 1997.82,319.07 1995.83,320.92 2000.29,322.77 2003.87,324.61
		2000.28,326.46 2000.67,328.3 1998.76,330.15 2005.05,331.99 2003.52,333.84 2000.58,335.68 2002.32,337.53 2004.58,339.37
		2001.88,341.22 1998.05,343.06 2001.74,344.91 2000.78,346.76 1999.86,348.61 2005.54,350.46 2001.54,352.31 1995.75,354.15
		1994.56,356 1997.04,357.85 1998.5,359.7 1998.16,361.54 1996.84,363.39 2000.74,365.23 2005.93,367.08 1999.3,368.93
		1998.83,370.78 2004.72,372.63 1998.14,374.48 2005.34,376.33 2004.9,378.18 2001.45,380.03 2003.35,381.87 1998.63,383.72
		1997.65,385.57 1999.13,387.42 2003.58,389.27 1994.91,391.12 2004.24,392.97 2001.52,394.82 2001.74,396.67 1997.36,398.52
		2002.41,400.37 2000.38,402.22 1998.43,404.07 2002.33,405.92 1999.61,407.77 1994.22,409.62 1998.76,411.47 2001.58,413.32
		2000.54,415.17 2005.29,417.02 1995.47,418.87 2003.98,420.72 2004.61,422.57 2000.67,424.42 2000.99,426.28 1997.55,428.13
		2000.53,429.97 2001.45,431.82 2002.5,433.67 1994.59,435.51 2003.51,437.36 1997.62,439.22 1996.59,441.07 1996.97,442.92
		1994.46,444.77 2000.87,446.62 2001.81,448.47 2000.25,450.32 1998.48,452.17 1996.85,454.03 2001.46,455.88 2005.69,457.73
		1994.07,459.59 1997.07,461.44 2003.09,463.3 2002.89,465.14 1998.45,467 2000.03,468.85 1998.94,470.71 1999.97,472.56
		1996.31,474.42 2001.7,476.28 1999.82,479.98 	"/>
	<polygon class="st1" points="1995.84,475.87 1998.15,476.68 1996.31,477.7 1994.46,478.51 1992.62,481.15 1990.77,482.6
		1988.93,474.77 1987.08,483.94 1985.23,485.54 1983.39,475.35 1981.54,474.4 1979.7,479.27 1977.85,481.21 1976.01,485.38
		1974.16,482.01 1972.32,478.22 1970.47,481.91 1968.63,482.46 1966.78,474.67 1964.94,483.54 1963.09,483.63 1961.25,476.26
		1959.41,482.54 1957.56,482.49 1955.72,480.96 1953.87,483.27 1952.03,476.89 1950.18,483.59 1948.34,482.25 1946.5,483.51
		1944.65,480.59 1942.81,481.01 1940.96,474.43 1939.12,484.21 1937.28,483.01 1935.43,479.03 1933.59,474.44 1931.75,478.05
		1929.9,479.17 1928.06,474.82 1926.21,474.05 1924.37,485.18 1922.53,478.93 1920.68,484.04 1918.84,474.94 1917,478.47
		1915.16,482.24 1913.31,483.61 1911.47,481.06 1909.63,477.36 1907.78,482.29 1905.94,475.96 1904.1,476.99 1902.25,477.6
		1900.41,480.29 1898.57,477.2 1896.73,475.19 1894.88,478.47 1893.04,477.93 1891.2,477.54 1889.35,481.15 1887.51,478.55
		1885.67,479.41 1883.83,476.42 1881.98,483.12 1880.14,485.65 1878.3,480.67 1876.46,484.58 1874.61,483.48 1872.77,484.24
		1870.93,478 1869.09,475.57 1867.25,474.48 1865.4,477.64 1863.56,485.7 1861.72,479.06 1859.88,483.3 1858.03,476.48
		1856.19,474.77 1854.35,474.28 1852.51,481.33 1850.67,478.69 1848.82,474.43 1846.98,479.9 1845.14,474.42 1843.3,480.5
		1841.45,484.42 1839.61,475 1837.77,485.16 1835.93,479.76 1834.09,475.88 1832.24,475.07 1830.4,479.88 1828.56,474.98
		1826.72,476.73 1824.88,481.88 1823.03,479.36 1821.19,481.4 1819.35,479.48 1817.51,475.24 1815.67,474.15 1813.82,483.63
		1811.98,479.16 1810.14,477.21 1808.3,479.19 1806.46,477.99 1804.61,475.49 1802.77,485.05 1800.93,480.91 1799.09,476.21
		1797.24,482.96 1795.4,483.35 1793.56,479.31 1791.72,479.56 1789.88,478.83 1788.03,475.67 1786.19,474.27 1784.35,475.09
		1782.51,476.8 1780.66,482.1 1778.82,478.69 1776.98,475.09 1775.14,476.43 1773.29,479.04 1771.45,479.48 1769.61,483.3
		1767.77,475.86 1765.92,479.69 1764.08,477.19 1762.24,481.28 1760.4,478.11 1758.55,479.52 1756.71,477.21 1754.87,474.07
		1753.03,474.44 1751.18,477.16 1749.34,479.45 1747.5,484.88 1745.65,478.94 1743.81,475.07 1741.97,483.24 1740.13,477.85
		1738.28,478.08 1736.44,478.31 1734.6,482.46 1732.75,482.48 1730.91,477.09 1729.07,479.91 1727.22,479.72 1725.38,478.93
		1723.54,483.15 1721.69,475.09 1719.85,482.46 1718.01,485.79 1716.16,475.17 1714.32,480.72 1712.47,485.88 1710.63,481.41
		1708.79,476 1706.94,482.53 1705.1,477.5 1703.25,480.44 1701.41,477.12 1699.57,478.25 1697.72,480.32 1695.88,480.78
		1694.03,475.51 1692.19,479.19 1690.34,477.38 1688.5,482.32 1686.65,480.59 1684.81,482.57 1682.96,474.66 1681.12,484.98
		1679.27,475.25 1677.43,481.04 1675.58,485.13 1673.74,475.29 1671.89,476.71 1670.05,485.69 1668.2,474.85 1666.35,476.92
		1664.51,477.07 1662.66,484.93 1660.82,474.04 1658.97,482.56 1657.13,481.56 1655.28,483.74 1653.43,485.88 1651.59,474.54
		1649.74,484.21 1647.89,485.46 1646.05,480.08 1644.2,483.46 1642.35,478.95 1640.51,476.67 1638.66,475.97 1636.81,484.36
		1634.96,477.9 1633.12,481.44 1631.27,485.96 1629.42,475.7 1627.57,478.81 1625.73,481.38 1623.88,480.39 1622.03,480.52
		1620.19,485.49 1618.34,483.79 1616.49,480.54 1614.65,479.24 1612.8,475.06 1610.96,474.41 1609.11,484.63 1607.26,481.34
		1605.42,476.04 1603.57,476.97 1601.72,477.85 1599.88,481.5 1598.03,482.94 1596.19,480.13 1594.34,483.13 1592.5,483.33
		1590.65,479.44 1588.81,477.92 1586.96,483.59 1585.11,480.24 1583.27,475.88 1581.42,480.38 1579.58,485.57 1577.73,480.79
		1575.89,485.02 1574.04,476.45 1572.2,481.08 1570.35,479.8 1568.51,485.89 1566.67,481.68 1564.82,482.56 1562.98,474.81
		1561.13,479.67 1559.29,485.17 1557.44,484.77 1555.6,476.93 1553.75,483.38 1551.91,475.86 1550.07,478.87 1548.22,483.85
		1546.38,481.4 1544.53,482.92 1542.69,481.22 1540.85,484.05 1539,480.51 1537.16,474.25 1535.31,474.19 1533.47,483.78
		1531.63,484.51 1529.78,479.71 1527.94,485.55 1526.09,482.09 1524.25,474.11 1522.41,483.37 1520.56,475.38 1518.72,481.4
		1516.88,484.17 1515.03,475.11 1513.19,485.49 1511.34,482.76 1509.5,479.98 1507.66,482.07 1505.81,480.13 1503.97,481.52
		1502.13,484.55 1500.28,478.17 1498.44,476.81 1496.6,484.36 1494.75,478.78 1492.91,484.22 1491.06,480.27 1489.22,479.49
		1487.38,478.38 1485.53,480.87 1483.69,482.32 1481.85,477.05 1480,477.37 1478.16,482.88 1476.32,484.49 1474.47,479.26
		1472.63,482.11 1470.78,481.02 1468.94,482.37 1467.1,485.69 1465.25,481.68 1463.41,479.98 1461.57,476.53 1459.72,476.92
		1457.88,482.51 1456.03,482.7 1454.19,484.81 1452.35,482.1 1450.5,477.1 1448.66,481.47 1446.81,476.97 1444.97,481.72
		1443.13,474.76 1441.28,474.17 1439.44,482.49 1437.59,478.89 1435.75,476.25 1433.91,482.02 1432.06,480.43 1430.22,478.67
		1428.37,484.08 1426.53,479.27 1424.68,478.23 1422.84,480.7 1420.99,478.46 1419.15,475.15 1417.3,484.31 1415.46,476.54
		1413.61,474.81 1411.77,478.4 1409.92,481.33 1408.08,485.08 1406.23,484.53 1404.39,476.95 1402.54,477.04 1400.7,485.44
		1398.85,483.07 1397.01,474.88 1395.16,475.54 1393.32,484.71 1391.47,483.13 1389.62,479.23 1387.78,481.81 1385.93,483.85
		1384.09,480.82 1382.24,478.91 1380.39,478.52 1378.55,483.25 1376.7,480.67 1374.85,476.18 1373.01,475.77 1371.16,483.16
		1369.31,475.48 1367.47,480.98 1365.62,476.87 1363.77,476.59 1361.92,478.64 1360.08,480.57 1358.23,484.83 1356.38,485.74
		1354.53,485.07 1352.69,474.79 1350.84,476.59 1348.99,483.69 1347.14,482.46 1345.3,481.38 1343.45,481.81 1341.6,480.45
		1339.75,484.77 1337.91,481.67 1336.06,477.05 1334.21,482.86 1332.36,481.87 1330.52,475.03 1328.67,484.26 1326.82,475.74
		1324.98,481.09 1323.13,480.52 1321.29,476.5 1319.44,481.55 1317.59,474.77 1315.75,486 1313.9,479.65 1312.05,474.14
		1310.21,485.43 1308.36,483.2 1306.52,485.06 1304.67,479.66 1302.83,474.6 1300.98,481.02 1299.13,478.08 1297.29,484.35
		1295.44,483.18 1293.6,479.49 1291.75,485.17 1289.91,482.32 1288.06,477.14 1286.22,476.75 1284.37,476.59 1282.53,474.78
		1280.68,482.4 1278.84,479.47 1276.99,483.59 1275.15,478.19 1273.3,482.95 1271.46,480.95 1269.61,478.81 1267.77,484.56
		1265.92,485.85 1264.08,485.48 1262.23,474.91 1260.39,479.29 1258.54,479.18 1256.7,483.13 1254.85,474.24 1253.01,484.13
		1251.16,482.65 1249.32,477.52 1247.47,484.49 1245.63,478.26 1243.78,476.93 1241.94,482.77 1240.1,485 1238.25,477.27
		1236.41,483.36 1234.56,484.18 1232.72,474.98 1230.87,479.14 1229.03,484.13 1227.18,482.92 1225.34,476.02 1223.49,484.65
		1221.65,478.62 1219.8,475.05 1217.96,476.29 1216.11,481.73 1214.27,485.89 1212.42,485.44 1210.58,476.8 1208.73,480.88
		1206.89,477.22 1205.04,482.67 1203.2,483.07 1201.35,479.33 1199.51,480.37 1197.66,475.63 1195.81,482.65 1193.97,477.04
		1192.12,479.74 1190.28,485.91 1188.43,479.71 1186.59,482.08 1184.74,474.09 1182.89,480.45 1181.05,483.39 1179.2,484.74
		1177.36,483.67 1175.51,474.93 1173.66,484.8 1171.82,481.7 1169.97,484.86 1168.12,484.11 1166.28,475.63 1164.43,481.67
		1162.58,483.96 1160.74,481.58 1158.89,483.14 1157.04,477.86 1155.2,480.1 1153.35,477.31 1151.5,482.49 1149.65,474.65
		1147.81,481.2 1145.96,479.33 1144.11,485.21 1142.26,481.9 1140.41,478.71 1138.57,483.91 1136.72,484.8 1134.87,480.16
		1133.02,485.19 1131.17,476.7 1129.33,474.16 1127.48,474.21 1125.63,480.41 1123.78,481.07 1121.94,479.9 1120.09,482.39
		1118.24,478.05 1116.39,480.16 1114.55,480.29 1112.7,482.93 1110.85,474.63 1109.01,476.92 1107.16,475.79 1105.31,476.8
		1103.47,480.85 1101.62,482.57 1099.77,483.02 1097.93,484.35 1096.08,480.85 1094.23,481.78 1092.39,480.96 1090.54,479.18
		1088.7,483.69 1086.85,477.09 1085,476.43 1083.16,484.62 1081.31,476.46 1079.47,480.77 1077.62,477.54 1075.77,476.14
		1073.93,479.34 1072.08,484.61 1070.24,482.16 1068.39,483.1 1066.55,476.12 1064.7,480.02 1062.86,474.08 1061.01,485.22
		1059.16,480.32 1057.32,474.69 1055.47,485.97 1053.63,485.13 1051.78,474.63 1049.94,482.35 1048.09,481.78 1046.24,484.4
		1044.4,483.56 1042.55,479.92 1040.71,477.68 1038.86,480.35 1037.02,481.28 1035.17,476.4 1033.32,474.22 1031.48,475.16
		1029.63,478.43 1027.79,483.93 1025.94,474.68 1024.1,482.47 1022.25,477.72 1020.4,475.36 1018.56,474.57 1016.71,475.03
		1014.86,474.41 1013.02,478.73 1011.17,480.89 1009.33,474.59 1007.48,479.28 1005.63,485.06 1003.79,482.37 1001.94,475.61
		1000.09,476.19 998.24,475.69 996.4,477.26 994.55,475.98 992.7,483.9 990.86,485.74 989.01,479.74 987.16,474.18 985.31,478.26
		983.47,481.92 981.62,479.75 979.77,478.38 977.92,476.42 976.07,475.14 974.23,481.1 972.38,482.66 970.53,479.05 968.68,478.23
		966.83,484.82 964.98,479.82 963.14,476.48 961.29,477.23 959.44,482.45 957.59,478.22 955.74,478.5 953.9,482.52 952.05,482.41
		950.2,483.88 948.35,485.87 946.51,480.33 944.66,478.04 942.81,475.32 940.97,483.21 939.12,482.73 937.27,476.42 935.42,476.51
		933.58,479.37 931.73,484.82 929.88,484.67 928.04,479.23 926.19,483 924.34,479.21 922.5,476.71 920.65,476.33 918.81,475.16
		916.96,480.31 915.11,477.36 913.27,477.11 911.42,483.08 909.57,480.74 907.73,474.55 905.88,478.4 904.03,480.62 902.19,484.29
		900.34,476.65 898.5,478.51 896.65,483.6 894.8,477.82 892.96,485.66 891.11,483.55 889.26,481.71 887.42,474.33 885.57,475.28
		883.72,485.47 881.88,478.83 880.03,477.73 878.18,480.63 876.34,481.16 874.49,475.86 872.64,477.7 870.8,480.47 868.95,476.04
		867.1,475.68 865.26,480.83 863.41,478.95 861.56,481.46 859.71,476.28 857.87,482.61 856.02,479.6 854.17,485.33 852.32,483.88
		850.48,482.56 848.63,482.48 846.78,477.32 844.93,475.86 843.08,482.85 841.23,485.49 839.38,484.05 837.54,477.56 835.69,476.85
		833.84,476.45 831.99,479.56 830.14,478.52 828.29,475.95 826.45,481.13 824.6,474.56 822.75,484.37 820.9,485 819.05,485.9
		817.21,481.73 815.36,478.02 813.51,474.85 811.66,479.9 809.82,480.45 807.97,478.09 806.12,478.16 804.28,483.71 802.43,474.43
		800.58,480.42 798.73,485.12 796.89,485.29 795.04,477.51 793.19,482.71 791.35,481.21 789.5,474.08 787.65,485.08 785.81,485.84
		783.96,483.57 782.11,482.17 780.27,482.38 778.42,480.09 776.57,474.19 774.72,475.47 772.88,475.24 771.03,477.87 769.18,482.45
		767.34,483.51 765.49,474.48 763.64,481.03 761.8,475.24 759.95,475.14 758.1,479.39 756.25,480.43 754.41,475.14 752.56,476.6
		750.71,475.67 748.86,483.89 747.01,481 745.17,475.12 743.32,481.25 741.47,478.11 739.62,479.28 737.77,484.81 735.92,475.23
		734.08,476.71 732.23,480.54 730.38,485.67 728.53,483.53 726.68,476.04 724.83,485.48 722.98,480.78 721.13,476.4 719.29,482.8
		717.44,482.81 715.59,478.27 713.74,483.29 711.89,483.24 710.05,479.47 708.2,475.22 706.35,484.47 704.5,481.87 702.66,485.49
		700.81,478.14 698.96,484.69 697.11,479.51 695.27,477.78 693.42,481.1 691.58,484.32 689.73,482.62 687.89,481.48 686.05,484.18
		684.2,477.31 682.36,485.74 680.52,480.92 678.67,485.37 676.83,479.41 674.98,482.88 673.14,478.81 671.29,480.48 669.45,475.91
		667.6,485.82 665.76,476.01 663.91,476.25 662.06,484.4 660.22,485.16 658.37,474.04 656.52,479.3 654.68,477.8 652.83,475.95
		650.98,477.02 649.13,477.92 647.28,483.17 645.44,483.84 643.59,475.18 641.74,475.55 639.89,481.56 638.04,485.56 636.19,482.39
		634.34,484.76 632.5,484.35 630.65,483.7 628.8,478.14 626.95,480.76 625.11,483.38 623.26,485.59 621.41,482.22 619.57,475.1
		617.72,482.37 615.88,478.1 614.03,480.64 612.18,480.61 610.34,474.84 608.49,484.43 606.65,478.95 604.8,480.43 602.96,480.05
		601.12,482.53 599.27,485.6 597.43,483.87 595.58,478.22 593.74,475.22 591.89,485.49 590.05,482.17 588.21,476.57 586.36,479.76
		584.52,482.13 582.67,482.89 580.83,475.3 578.99,474.76 577.14,476.95 575.3,483.87 573.46,481.11 571.61,480.42 569.77,475.88
		567.92,481.61 566.08,481.61 564.24,485.8 562.39,475.78 560.55,482.97 558.7,479.81 556.86,483.14 555.02,485.01 553.17,483.03
		551.33,478.3 549.48,478.98 547.64,482.46 545.79,474.01 543.95,476.36 542.1,478.13 540.26,477.58 538.41,484.16 536.56,477.39
		534.72,478.14 532.87,479.62 531.03,483.38 529.18,474.06 527.33,482.32 525.48,478.51 523.64,478.58 521.79,480.57 519.94,485.16
		518.09,485.8 516.24,479.56 514.39,483.33 512.54,485.93 510.69,485.97 508.84,478.36 506.99,475.51 505.14,484.4 503.29,478.54
		501.45,482.84 499.6,482.78 497.75,478.62 495.9,485.3 494.05,483.56 492.2,481.66 490.36,478.47 488.51,475.08 486.66,478.57
		484.82,477.76 482.97,483.06 481.12,476.45 479.28,483.24 477.43,477.51 475.58,483.65 473.74,482.57 471.89,481.85 470.04,476.39
		468.2,476.09 466.35,478.89 464.51,475.89 462.66,485.44 460.82,484.7 458.97,485.68 457.12,477.85 455.28,479.11 453.43,485.27
		451.59,478.07 449.74,485.5 447.89,477.99 446.05,481.28 444.2,483.81 442.35,477.45 440.51,481.74 438.66,477.04 436.81,481.25
		434.97,476.94 433.12,477.64 431.27,481.76 429.42,481.75 427.58,484.55 425.73,480.03 423.88,480.3 422.03,479.03 420.18,483.03
		418.33,478.15 416.48,480.59 414.63,481.84 412.78,482.75 410.93,475.68 409.08,477.52 407.23,480.2 405.38,474.98 403.53,475.32
		401.68,479.18 399.83,477.7 397.98,477.62 396.13,483.91 394.28,483.37 392.44,476.19 390.59,480.4 388.74,475.29 386.89,478.22
		385.05,485.3 383.2,474.41 381.35,482.49 379.5,474.8 377.66,478.99 375.81,480.75 373.96,480.37 372.12,477.59 370.27,479.73
		368.42,475.3 366.57,482.32 364.72,484.7 362.88,476.55 361.03,484.36 359.18,476.28 357.33,483.68 355.48,477.32 353.63,484.13
		351.78,479.44 349.93,474.92 348.08,485.74 346.23,474.89 344.38,481.02 342.53,476.27 340.68,475.32 338.83,482.64 336.98,480.58
		335.13,481 333.28,474.75 331.43,475.32 329.58,475.08 327.73,478.86 325.88,477.08 324.03,474.19 322.18,482.23 320.34,476.15
		318.49,479.01 316.64,475.47 314.79,477.33 312.94,480.58 311.09,482.71 309.24,475.01 307.4,475.18 305.55,482.97 303.7,478.6
		301.85,474.9 300,478.23 298.15,485.51 296.3,481.27 294.45,476.91 292.6,474.54 290.75,476.5 288.9,481.2 287.04,485.5
		285.19,482.7 283.34,485.53 281.49,480.42 279.64,477.55 277.79,479.34 275.94,474.82 274.09,474.52 272.24,481.39 270.39,482.37
		268.54,476.73 266.69,477.6 264.85,482.16 263,481.52 261.15,481.22 259.3,476.17 257.45,476.43 255.6,477.38 253.75,483.22
		251.9,480.73 250.04,476.75 248.19,476.5 246.34,481.74 244.49,477.13 242.64,477.23 240.79,475.71 238.94,480.52 237.09,482.32
		235.24,480.88 233.39,475.25 231.54,474.31 229.69,482.64 227.84,479.61 225.99,481.93 224.13,482.39 222.28,483.2 220.43,475.87
		218.58,481.79 216.73,481.39 214.88,482.65 213.03,484.59 211.18,475.55 209.32,479.22 207.47,481.68 205.62,484.55 203.77,484.29
		201.92,474.01 200.07,483.73 198.22,485.85 196.37,474.76 194.52,479.88 192.67,476.19 190.82,478.48 188.96,483.58 187.11,483.46
		185.26,482.49 183.41,476.78 181.56,481.79 179.72,477.06 177.87,481.48 176.02,484.71 174.18,475.18 172.33,480.31 170.48,476.48
		168.63,476.88 166.78,477.62 164.93,480.15 163.07,474.29 161.22,483.98 159.37,480.91 157.52,477.1 155.67,476.67 153.82,481.8
		151.97,478.39 150.13,483.61 148.28,484.53 146.43,484.47 144.58,485.88 142.74,482.42 140.89,485.31 139.04,480.84 137.19,485.09
		135.34,478.79 133.49,483.9 131.64,483.04 129.78,485.07 127.93,474.49 126.08,475.39 124.23,481.85 122.37,482.93 120.52,485.33
		118.68,480.15 116.83,481.96 114.98,483.34 113.13,478.31 111.27,479.54 109.42,483.82 107.57,478.08 105.72,481.99 103.86,480.66
		102.01,477.15 100.16,485.03 98.31,482.26 96.45,476.48 94.6,480.78 92.75,476.04 90.9,477.04 89.05,481.7 87.19,477.89
		85.34,484.96 83.48,482.19 81.63,482.9 79.78,485.34 77.93,485.35 76.07,478.08 74.22,483.02 72.36,474.1 70.51,485 68.66,485.05
		66.8,478.92 64.95,475.64 63.1,474.96 61.24,481.42 59.39,480.07 57.53,483.03 55.68,476.11 53.82,484 51.97,479 50.12,481.85
		48.27,476.98 46.42,480.97 44.57,481.67 42.71,483.51 40.86,481.88 39,477.01 37.15,484.35 35.3,476.15 33.44,475 31.59,484.54
		29.73,481.16 27.88,477.69 26.02,483.61 24.16,480.95 22.31,484.86 20.45,474.21 18.59,485.9 16.74,477.73 14.88,477.09
		13.02,476.27 11.17,478.8 9.31,481.25 7.45,474.54 5.59,476.2 3.73,475.08 1.86,479.3 -2.39,482.41 0.76,478.16 -1.24,476.31
		-4.97,474.47 -0.41,472.63 4.76,470.78 2.64,468.94 -4.01,467.1 -1.04,465.25 3.91,463.41 5.44,461.57 -5.4,459.73 -4.93,457.88
		-5.4,456.04 0.81,454.2 -5,452.36 0.78,450.51 2.41,448.67 4.74,446.83 -2.22,444.99 -1.95,443.14 -1.17,441.3 -2.47,439.46
		0.39,437.62 -2.03,435.77 -2.98,433.93 2.77,432.09 -5.07,430.24 5.9,428.4 3.52,426.56 -5.89,424.71 -2.79,422.87 -0.62,421.03
		1.26,419.18 -1.86,417.34 3.36,415.49 -3.71,413.65 0.84,411.8 0.34,409.95 4.08,408.11 -2.88,406.26 -0.77,404.41 -1.54,402.57
		0.65,400.72 -1.26,398.87 3.09,397.02 2.14,395.18 -3.19,393.33 -4.59,391.49 3.8,389.64 -0.72,387.8 -5.38,385.95 -3.29,384.11
		1.2,382.26 -0.2,380.42 4.54,378.57 1.86,376.73 -0.57,374.89 -2.46,373.04 1.66,371.2 -3.8,369.35 -0.29,367.51 -3.34,365.67
		-5.6,363.82 5.36,361.98 -2.58,360.14 3.53,358.29 5.66,356.45 -3.2,354.6 -3.63,352.76 -1.68,350.91 0.63,349.07 0.34,347.22
		-0.32,345.38 3.34,343.53 5.37,341.69 -2.73,339.84 2.08,337.99 -1.66,336.15 -5.77,334.3 -2.33,332.45 2.99,330.6 3.8,328.75
		-5.68,326.91 -0.36,325.06 5.42,323.21 -1.55,321.37 -2.9,319.52 -2.07,317.68 -4.24,315.83 3.97,313.99 5.2,312.14 -0.24,310.3
		1.7,308.45 3.26,306.61 -3.33,304.76 -0.72,302.92 -4.69,301.07 1.05,299.23 2.73,297.38 0.42,295.54 2.45,293.69 1.42,291.84
		-2.93,290 3.75,288.15 5.63,286.31 -5.15,284.46 -2.92,282.61 -1.13,280.76 1.43,278.91 5.4,277.07 2.74,275.22 -1.9,273.37
		3.63,271.52 2.75,269.68 5.75,267.83 -3.05,265.98 5.15,264.14 5.61,262.29 -5.42,260.45 5.13,258.6 1.94,256.76 1.16,254.91
		-4.05,253.06 -2.37,251.22 -4.09,249.37 -4.82,247.52 -5.42,245.68 1.51,243.83 -3.86,241.98 -2.56,240.14 -0.5,238.29
		0.11,236.44 -4.71,234.59 5.08,232.74 2.99,230.9 2.13,229.05 0.55,227.2 4.4,225.35 4.25,223.51 5.41,221.66 0.14,219.82
		5.91,217.97 -0.05,216.12 -1.12,214.28 4.48,212.43 1.19,210.58 5.89,208.73 -3.59,206.89 -4.82,205.04 0.04,203.19 -0.39,201.34
		-5.96,199.49 5.01,197.64 0.82,195.8 4.43,193.95 0.45,192.1 5.92,190.26 4.34,188.41 0.78,186.56 -3.95,184.71 -3.76,182.87
		-3.91,181.02 5.04,179.17 -5.57,177.32 0.23,175.47 -4.62,173.63 2.08,171.79 1.87,169.95 -0.94,168.1 0.01,166.26 -0.54,164.42
		0.35,162.57 -1.64,160.73 -2.88,158.88 -2.41,157.03 1.82,155.18 -0.56,153.34 0.79,151.49 -0.13,149.64 -0.61,147.79
		-4.59,145.95 -0.87,144.1 0.96,142.26 -5.13,140.41 -0.85,138.57 -0.7,136.72 5.3,134.88 0.53,133.03 -3.6,131.19 5.3,129.34
		2.06,127.5 2.5,125.65 -0.94,123.8 -3.02,121.95 -3.47,120.1 -0.42,118.25 -4.25,116.4 -2.99,114.56 0.16,112.71 -3,110.86
		-1.1,109.02 -5.66,107.17 -4.57,105.32 -3.22,103.48 -2.69,101.63 2.87,99.78 5.5,97.93 -3.66,96.08 1.52,94.23 -0.12,92.38
		-3.07,90.53 0.9,88.69 2.87,86.84 -1.11,84.99 -2.5,83.14 1.45,81.29 -2.35,79.44 1.56,77.59 1.33,75.74 -4.24,73.89 5.18,72.04
		-0.78,70.19 -4.65,68.34 4.1,66.49 3.18,64.64 -3.26,62.79 3.26,60.94 1.36,59.09 -2.55,57.24 1.31,55.39 1.17,53.54 5.16,51.69
		4.92,49.84 -3.33,47.99 -3,46.14 1.45,44.28 -0.61,42.43 1.65,40.59 -4.33,38.74 -4.51,36.89 -5.14,35.05 5.38,33.19 -1.56,31.34
		1.57,29.49 3.73,27.64 -2.04,25.79 -1.75,23.94 -4.75,22.09 -3.06,20.24 -2.82,18.39 -0.58,16.53 1.69,14.68 -0.82,12.83
		1.89,10.97 -0.33,9.12 -4.28,7.26 2.31,5.41 0.62,3.56 -1.34,1.71 3.23,-0.15 -1.97,-2.01 2.21,-3.86 -4.81,-5.72 -4.39,-7.58
		3.63,-5.84 1.85,-8.54 3.69,-8.32 5.54,-6.76 7.38,-13.35 9.23,-10.88 11.07,-11.25 12.92,-9.49 14.77,-14.71 16.61,-12.59
		18.46,-11.55 20.3,-13.79 22.15,-12.19 23.99,-11.84 25.84,-11.1 27.68,-4.1 29.53,-8.88 31.37,-13.05 33.22,-10.84 35.06,-5.97
		36.91,-14.96 38.75,-13.71 40.59,-13.24 42.44,-13.6 44.28,-12.17 46.13,-10.96 47.97,-13.13 49.82,-7.19 51.66,-6.09 53.5,-13.13
		55.35,-15.02 57.19,-12.18 59.04,-14.86 60.88,-11.89 62.72,-12.56 64.57,-14.98 66.41,-5.4 68.25,-8.1 70.1,-4.14 71.94,-11.42
		73.79,-9.92 75.63,-10.96 77.47,-4.55 79.32,-14.41 81.16,-13.58 83,-7.74 84.84,-6.41 86.69,-9.01 88.53,-14.25 90.37,-15.41
		92.22,-7.43 94.06,-5.54 95.9,-13.17 97.75,-7.65 99.59,-9.21 101.43,-10.85 103.27,-13.42 105.12,-8.61 106.96,-7.57 108.8,-8.33
		110.65,-13.06 112.49,-14.65 114.33,-12.28 116.17,-6.81 118.02,-9.87 119.86,-11.65 121.7,-7.94 123.54,-9.05 125.39,-4.45
		127.23,-13.09 129.07,-14.09 130.91,-7.82 132.75,-6.69 134.6,-14.36 136.44,-12.24 138.28,-4.23 140.12,-8.36 141.97,-4.67
		143.81,-5.74 145.65,-12.58 147.49,-10.82 149.33,-3.88 151.18,-4.52 153.02,-10.06 154.86,-10.59 156.7,-13.71 158.55,-8.28
		160.39,-11.75 162.23,-7.8 164.07,-6.65 165.91,-8.29 167.76,-13.3 169.6,-12.23 171.44,-9.95 173.28,-9.56 175.12,-5.58
		176.97,-4.01 178.81,-12.05 180.65,-9.13 182.49,-7.75 184.33,-3.63 186.18,-12.88 188.02,-4.63 189.86,-11.12 191.7,-4.38
		193.54,-5.36 195.39,-4.75 197.23,-8.12 199.07,-5.87 200.91,-5.49 202.76,-7.58 204.6,-10.86 206.44,-9.65 208.28,-14.36
		210.12,-14.7 211.97,-5.48 213.81,-11.78 215.65,-5.58 217.49,-10.89 219.34,-10.92 221.18,-9.11 223.02,-13.34 224.86,-13.36
		226.71,-8.17 228.55,-6.38 230.39,-6.59 232.23,-12.3 234.08,-4.72 235.92,-4.78 237.76,-8.69 239.6,-14.66 241.45,-12.24
		243.29,-6.93 245.13,-3.86 246.97,-13.15 248.82,-10.16 250.66,-7.22 252.5,-5.9 254.35,-8.11 256.19,-9.33 258.03,-14.33
		259.87,-10.43 261.72,-12.3 263.56,-12.26 265.4,-14.71 267.25,-14.15 269.09,-10.44 270.93,-8.16 272.78,-8.16 274.62,-14.36
		276.46,-7.39 278.31,-15.37 280.15,-12.01 281.99,-4.31 283.84,-4.72 285.68,-9.38 287.53,-9.17 289.37,-9.5 291.21,-3.8
		293.06,-12.83 294.9,-12.58 296.75,-12.54 298.59,-6.96 300.43,-6.03 302.28,-5.23 304.12,-3.8 305.97,-6.93 307.81,-6.13
		309.66,-12.33 311.5,-5.29 313.35,-8.18 315.19,-9.48 317.04,-4.82 318.88,-5.12 320.73,-10.13 322.57,-13.58 324.42,-10.83
		326.26,-9.89 328.11,-8.11 329.95,-4.8 331.8,-14.06 333.64,-8.49 335.49,-13.98 337.34,-8.5 339.18,-4.07 341.03,-6.55
		342.87,-8.2 344.72,-3.72 346.57,-9.12 348.41,-8.96 350.26,-5.24 352.11,-14.9 353.95,-8.68 355.8,-13.94 357.65,-12.3
		359.49,-15.04 361.34,-12.27 363.19,-3.84 365.04,-15.11 366.88,-12.6 368.73,-9.68 370.58,-8.23 372.43,-10.73 374.27,-4.56
		376.12,-7.33 377.97,-8.53 379.81,-5.19 381.66,-11.97 383.51,-11.69 385.35,-11.63 387.2,-7.92 389.04,-12.49 390.89,-6.66
		392.74,-13.82 394.58,-12.76 396.43,-10.06 398.28,-13.68 400.12,-14.44 401.97,-9.48 403.81,-8.38 405.66,-5.64 407.5,-4.66
		409.35,-3.67 411.19,-8.27 413.04,-15.21 414.89,-6.62 416.73,-4.85 418.58,-11.53 420.42,-4.69 422.27,-4.5 424.11,-8.72
		425.96,-7.53 427.8,-6.14 429.65,-10.77 431.49,-5.39 433.33,-8.94 435.18,-14.69 437.02,-13.03 438.87,-3.48 440.71,-5
		442.56,-11.89 444.4,-8.77 446.25,-5.97 448.09,-6.69 449.93,-10.02 451.78,-5.53 453.62,-11.67 455.47,-4.19 457.31,-14.16
		459.15,-13.75 461,-14.14 462.84,-10.91 464.69,-9.02 466.53,-5.65 468.37,-12.03 470.22,-14.67 472.06,-11.19 473.91,-11.67
		475.75,-14.65 477.59,-10.16 479.44,-5.97 481.28,-3.67 483.12,-8.65 484.97,-5.24 486.81,-13.43 488.66,-12.37 490.5,-13.65
		492.34,-7.37 494.19,-6.61 496.03,-8.36 497.87,-12.85 499.72,-14.56 501.56,-10.87 503.4,-6.1 505.25,-6.25 507.09,-5.25
		508.94,-11.07 510.78,-4.23 512.62,-8.56 514.47,-11.4 516.31,-7.67 518.15,-5.59 520,-11.61 521.84,-5.26 523.68,-4.39
		525.53,-6.34 527.37,-9.11 529.22,-8.22 531.06,-4.5 532.9,-5.57 534.75,-7.61 536.59,-7.95 538.43,-14.5 540.28,-8.62
		542.12,-13.67 543.97,-8.42 545.81,-12.17 547.65,-3.83 549.5,-4.92 551.34,-14.96 553.19,-9.7 555.03,-5.63 556.87,-7.06
		558.72,-14.96 560.56,-12.95 562.41,-11.78 564.25,-8.59 566.09,-8.38 567.94,-7.64 569.78,-3.85 571.63,-15.13 573.47,-4.57
		575.32,-13.26 577.16,-6.47 579.01,-11.23 580.85,-3.73 582.7,-11.81 584.54,-10.55 586.39,-11.6 588.23,-11.39 590.08,-7.91
		591.92,-4.15 593.77,-5.53 595.61,-8.31 597.46,-3.53 599.3,-12 601.15,-12.44 602.99,-8.15 604.84,-11.84 606.68,-15.34
		608.53,-4.44 610.38,-5.22 612.22,-13.42 614.07,-13.32 615.91,-9.72 617.76,-4.86 619.61,-15.36 621.45,-13.33 623.3,-8.74
		625.15,-10.67 626.99,-8.4 628.84,-7.74 630.69,-8.97 632.53,-4.97 634.38,-6.85 636.23,-12.26 638.08,-6.18 639.92,-12.99
		641.77,-14.16 643.62,-7.45 645.47,-14.04 647.31,-11.03 649.16,-15.07 651.01,-14.66 652.86,-14.05 654.7,-9.02 656.55,-5.17
		658.4,-3.83 660.25,-7.47 662.09,-7.87 663.94,-14.8 665.79,-8.48 667.64,-9.34 669.48,-6.01 671.33,-6.11 673.18,-13.3
		675.02,-10.31 676.87,-7.3 678.71,-8.14 680.56,-13.68 682.41,-10.28 684.25,-13.07 686.1,-8.92 687.95,-4.6 689.79,-5.54
		691.64,-10.23 693.48,-5.24 695.33,-10.23 697.17,-9.53 699.02,-10.11 700.87,-5.24 702.71,-7.58 704.56,-12.88 706.4,-6.37
		708.25,-12.48 710.09,-11.67 711.94,-10.73 713.78,-14.21 715.63,-14.42 717.47,-7.49 719.32,-15.16 721.16,-11.42 723.01,-4.28
		724.85,-8.18 726.7,-12.63 728.54,-3.57 730.39,-10.99 732.23,-8.81 734.08,-12.21 735.92,-9.7 737.77,-10.27 739.61,-7.1
		741.46,-12.7 743.3,-10.94 745.15,-3.63 746.99,-4.51 748.84,-10.18 750.68,-6.36 752.53,-6.09 754.37,-14.99 756.22,-6.23
		758.06,-14.53 759.9,-13.7 761.75,-6.86 763.59,-6.4 765.44,-9.03 767.28,-3.54 769.13,-9.16 770.97,-4.97 772.82,-10.43
		774.66,-13.17 776.51,-7.76 778.35,-5.79 780.2,-10.99 782.04,-4.39 783.89,-6.75 785.73,-15.19 787.58,-14.53 789.42,-14.15
		791.27,-12.45 793.11,-8.66 794.96,-11.86 796.8,-9.57 798.65,-15.25 800.49,-11.33 802.34,-5.98 804.19,-9.85 806.03,-14.92
		807.88,-6.09 809.72,-3.75 811.57,-11.95 813.41,-8.55 815.26,-13.1 817.11,-4.04 818.95,-7.06 820.8,-10.61 822.64,-6.8
		824.49,-6.97 826.34,-8.5 828.18,-12.48 830.03,-14.06 831.88,-14.56 833.72,-6.15 835.57,-10.77 837.42,-11.51 839.26,-11.14
		841.11,-8.11 842.96,-11.9 844.8,-13.79 846.65,-13.89 848.5,-12.56 850.35,-10.22 852.19,-6.77 854.04,-13.93 855.89,-10.74
		857.74,-15.17 859.59,-9.42 861.43,-6.28 863.28,-7.76 865.13,-4.67 866.98,-14.36 868.83,-13.16 870.67,-6.24 872.52,-12.29
		874.37,-6.83 876.22,-10.83 878.06,-11.73 879.91,-9.5 881.76,-4.12 883.61,-12.55 885.45,-4.52 887.3,-6.36 889.15,-15.17
		890.99,-13.9 892.84,-9 894.69,-8.06 896.53,-6.32 898.38,-4.84 900.23,-13.3 902.07,-10.67 903.92,-13.04 905.77,-7.01
		907.61,-14.07 909.46,-9.48 911.3,-3.53 913.15,-4.46 915,-11.36 916.84,-11.27 918.69,-6.06 920.53,-14.31 922.38,-12.42
		924.23,-11.97 926.07,-9.95 927.92,-9.72 929.76,-13.27 931.61,-14.96 933.45,-7.99 935.3,-13.46 937.14,-5 938.99,-3.57
		940.84,-14.29 942.68,-14.51 944.53,-9.6 946.37,-14.88 948.22,-5.33 950.06,-14.08 951.91,-12.21 953.76,-12.51 955.6,-14.14
		957.45,-9.4 959.29,-10.7 961.14,-5.52 962.98,-13.46 964.83,-5.64 966.68,-13.39 968.52,-14.97 970.37,-9.81 972.21,-8.36
		974.06,-13.88 975.9,-11.33 977.75,-8.22 979.6,-14.9 981.44,-13.77 983.29,-12.38 985.14,-5.69 986.98,-4.95 988.83,-14.19
		990.67,-8.69 992.52,-9.02 994.37,-8.87 996.21,-11.01 998.06,-14.24 999.91,-7.12 1001.76,-13.94 1003.6,-10.64 1005.45,-5.51
		1007.3,-13.46 1009.14,-15.14 1010.99,-5.16 1012.84,-10.38 1014.69,-12.74 1016.53,-6.52 1018.38,-7.91 1020.23,-14.26
		1022.08,-11.44 1023.93,-3.89 1025.77,-4.11 1027.62,-4.79 1029.47,-14.35 1031.32,-14.94 1033.17,-13.62 1035.02,-14.51
		1036.86,-6.76 1038.71,-11.28 1040.56,-12.62 1042.41,-14.88 1044.26,-4.3 1046.1,-10.73 1047.95,-7.06 1049.8,-12.99
		1051.65,-10.25 1053.49,-12.35 1055.34,-4.81 1057.19,-12.33 1059.03,-14.28 1060.88,-12.33 1062.73,-11.39 1064.58,-9.12
		1066.42,-4.34 1068.27,-11.47 1070.12,-12.09 1071.96,-9.34 1073.81,-5.75 1075.66,-14.27 1077.5,-5.41 1079.35,-10.08
		1081.19,-11.22 1083.04,-14.27 1084.89,-14.7 1086.73,-14.43 1088.58,-7.77 1090.43,-13.86 1092.27,-10.79 1094.12,-11.34
		1095.97,-12.4 1097.81,-13.02 1099.66,-8.66 1101.5,-13.79 1103.35,-10.35 1105.2,-15.32 1107.04,-6.79 1108.89,-14.72
		1110.74,-7.87 1112.58,-9.59 1114.43,-8.29 1116.28,-14 1118.12,-9.33 1119.97,-11.53 1121.82,-8.5 1123.66,-11.91 1125.51,-10.64
		1127.36,-3.86 1129.2,-8.13 1131.05,-14.38 1132.9,-10.71 1134.74,-15.11 1136.59,-8.57 1138.44,-5.54 1140.29,-12.94
		1142.13,-7.64 1143.98,-12.51 1145.83,-4.77 1147.68,-6.56 1149.52,-7.15 1151.37,-10.47 1153.22,-7.74 1155.07,-7.75
		1156.92,-12.09 1158.77,-12.45 1160.62,-12.82 1162.46,-6.32 1164.31,-7.36 1166.16,-9.19 1168.01,-4.14 1169.86,-5.94
		1171.71,-4.65 1173.55,-6.23 1175.4,-8.81 1177.25,-3.7 1179.1,-13.77 1180.95,-3.49 1182.79,-3.48 1184.64,-12.9 1186.49,-11.45
		1188.34,-15.28 1190.18,-3.91 1192.03,-11.02 1193.88,-3.85 1195.72,-3.62 1197.57,-4.59 1199.42,-12.61 1201.27,-9.25
		1203.11,-11.75 1204.96,-6.02 1206.81,-5.08 1208.65,-9.23 1210.5,-10.61 1212.35,-12.98 1214.19,-7.27 1216.04,-6.83
		1217.89,-9.43 1219.73,-13.04 1221.58,-12.53 1223.43,-11.86 1225.28,-14.92 1227.12,-10.89 1228.97,-4.42 1230.82,-7.96
		1232.66,-6.29 1234.51,-7.67 1236.36,-10.68 1238.2,-9.65 1240.05,-14.73 1241.9,-12.81 1243.75,-11.52 1245.59,-11.77
		1247.44,-6.41 1249.29,-13.69 1251.14,-3.94 1252.99,-11.7 1254.83,-5.67 1256.68,-14.54 1258.53,-14.1 1260.38,-14.72
		1262.23,-13.51 1264.08,-9.82 1265.92,-11.58 1267.77,-10.91 1269.62,-14.04 1271.47,-3.73 1273.32,-9.32 1275.17,-13.96
		1277.02,-7.9 1278.87,-12.92 1280.71,-15.19 1282.56,-6.2 1284.41,-5.53 1286.26,-7.96 1288.11,-11.12 1289.95,-12.33 1291.8,-15
		1293.65,-6.89 1295.5,-9.47 1297.34,-14.16 1299.19,-5.51 1301.04,-12.24 1302.89,-14.8 1304.73,-12.73 1306.58,-13.27
		1308.42,-4.88 1310.27,-12.62 1312.11,-10.22 1313.95,-10.7 1315.8,-10.07 1317.64,-5.18 1319.48,-14.04 1321.33,-5.77
		1323.17,-5.14 1325.02,-12.17 1326.86,-15.34 1328.71,-4.45 1330.55,-8.02 1332.4,-8.12 1334.24,-8.56 1336.09,-15.06
		1337.94,-8.29 1339.78,-14.39 1341.63,-4.15 1343.48,-15.44 1345.32,-7.73 1347.17,-5.73 1349.02,-4.95 1350.87,-13.76
		1352.72,-12.14 1354.56,-5.11 1356.41,-6.65 1358.26,-3.95 1360.11,-13.49 1361.96,-14.9 1363.81,-4.59 1365.66,-6.49
		1367.5,-7.98 1369.35,-14.08 1371.2,-7.37 1373.05,-7.56 1374.89,-5.27 1376.74,-5.47 1378.59,-3.58 1380.43,-11.36
		1382.28,-14.34 1384.12,-6.85 1385.97,-14.06 1387.82,-6.42 1389.66,-9.26 1391.51,-5.78 1393.35,-8.1 1395.2,-12.96
		1397.04,-4.35 1398.88,-12.1 1400.73,-7.83 1402.57,-11.94 1404.42,-13.96 1406.26,-11.83 1408.11,-15.36 1409.95,-6.86
		1411.79,-14.48 1413.64,-4.54 1415.48,-14.84 1417.33,-7.07 1419.17,-7.67 1421.01,-11.86 1422.86,-8.01 1424.7,-3.56
		1426.54,-14.89 1428.39,-11.23 1430.23,-11.47 1432.08,-14 1433.92,-5.56 1435.76,-6.49 1437.61,-10.09 1439.45,-4 1441.3,-9.17
		1443.14,-9.47 1444.98,-11 1446.83,-13.42 1448.67,-6.24 1450.52,-12.27 1452.36,-12.41 1454.21,-6.55 1456.05,-3.68
		1457.9,-12.13 1459.74,-7.77 1461.59,-15.22 1463.44,-9.77 1465.28,-12.86 1467.13,-7.5 1468.97,-9.45 1470.82,-14.33
		1472.67,-4.54 1474.52,-6.85 1476.36,-4.77 1478.21,-13.23 1480.06,-13.59 1481.91,-14.02 1483.76,-8.86 1485.61,-14.88
		1487.46,-8.83 1489.31,-7.22 1491.16,-4.62 1493.01,-7.76 1494.86,-7.61 1496.71,-6.7 1498.55,-4.3 1500.4,-6.73 1502.25,-11.78
		1504.1,-10.45 1505.95,-11.75 1507.8,-13.11 1509.64,-9.44 1511.49,-3.72 1513.34,-11.63 1515.18,-6.23 1517.03,-8.21
		1518.88,-6.84 1520.72,-14.3 1522.57,-5.67 1524.42,-12.14 1526.26,-11.69 1528.11,-11.56 1529.95,-9.48 1531.8,-3.82
		1533.65,-11.14 1535.49,-3.8 1537.34,-4.04 1539.18,-11.88 1541.03,-8.02 1542.88,-13.64 1544.72,-6.59 1546.57,-13.53
		1548.41,-3.69 1550.26,-6.9 1552.11,-12.07 1553.95,-4.09 1555.8,-8.88 1557.65,-7.7 1559.49,-9.52 1561.34,-7.4 1563.19,-5.06
		1565.03,-4.64 1566.88,-11.4 1568.73,-11.01 1570.58,-6.6 1572.42,-6.88 1574.27,-9.35 1576.12,-7.92 1577.97,-8.31
		1579.82,-15.12 1581.67,-3.52 1583.52,-8.86 1585.37,-4.59 1587.22,-14.1 1589.07,-7.11 1590.92,-14.91 1592.77,-8.59
		1594.62,-3.8 1596.47,-5.3 1598.32,-6.4 1600.17,-5.78 1602.02,-8.02 1603.87,-10.04 1605.72,-9.86 1607.56,-10.32 1609.41,-5.21
		1611.26,-10.04 1613.11,-11.07 1614.95,-14.52 1616.8,-8.56 1618.65,-5.39 1620.5,-3.82 1622.34,-11.89 1624.19,-12.14
		1626.04,-10.04 1627.88,-14.6 1629.73,-4.03 1631.58,-5.88 1633.43,-7.74 1635.28,-8.72 1637.12,-3.82 1638.97,-4.47 1640.82,-8.6
		1642.67,-10.09 1644.52,-5.28 1646.37,-4.84 1648.22,-11.78 1650.07,-4.25 1651.92,-4.41 1653.77,-9.3 1655.62,-9.62
		1657.47,-4.67 1659.32,-5.46 1661.17,-5 1663.02,-6.63 1664.87,-8.21 1666.72,-12.95 1668.57,-12.77 1670.42,-8.63 1672.27,-3.54
		1674.12,-3.86 1675.97,-12.1 1677.82,-3.58 1679.66,-10.4 1681.51,-12.35 1683.36,-11.23 1685.21,-9.29 1687.06,-13.66
		1688.91,-9.34 1690.76,-9.06 1692.6,-5.47 1694.45,-9.94 1696.3,-9.37 1698.15,-10.02 1700,-5.52 1701.85,-6.78 1703.7,-15.18
		1705.55,-6.44 1707.4,-13.41 1709.25,-12.14 1711.1,-4.21 1712.96,-5.68 1714.81,-12.98 1716.66,-10.11 1718.51,-11.58
		1720.36,-4.45 1722.21,-11.12 1724.06,-8.86 1725.91,-9.76 1727.76,-11.69 1729.61,-6.13 1731.46,-12.4 1733.31,-11.52
		1735.15,-10.4 1737,-10.71 1738.85,-14.39 1740.7,-12.24 1742.55,-7.71 1744.4,-12.83 1746.25,-9.56 1748.1,-6.24 1749.96,-3.73
		1751.81,-4 1753.66,-12.8 1755.51,-5.35 1757.36,-4.31 1759.21,-6.29 1761.06,-9.75 1762.91,-6.1 1764.76,-4.44 1766.61,-11.29
		1768.46,-8.75 1770.31,-13.97 1772.16,-7.2 1774.01,-14.7 1775.86,-10.02 1777.72,-11.04 1779.57,-5.13 1781.42,-11.65
		1783.27,-13.95 1785.12,-11.34 1786.97,-12.96 1788.82,-4.25 1790.68,-4.4 1792.53,-6.5 1794.38,-6.44 1796.23,-6.76 1798.08,-4.9
		1799.93,-5.71 1801.78,-12.3 1803.63,-3.67 1805.48,-11.52 1807.33,-8.83 1809.18,-12.07 1811.04,-14.17 1812.89,-8.37
		1814.74,-8.52 1816.59,-12.77 1818.44,-14.28 1820.28,-13.69 1822.13,-4.22 1823.98,-7.23 1825.82,-14.1 1827.67,-14.15
		1829.52,-4.05 1831.37,-9 1833.22,-5.52 1835.07,-11.55 1836.93,-9.12 1838.78,-4.65 1840.63,-5.75 1842.48,-3.5 1844.33,-4.64
		1846.18,-8.44 1848.03,-8.06 1849.87,-14.17 1851.72,-12.15 1853.57,-14.06 1855.42,-5.1 1857.26,-8.93 1859.11,-11.32
		1860.96,-4.57 1862.81,-4.24 1864.66,-12.63 1866.51,-13.56 1868.36,-7.15 1870.22,-8.18 1872.07,-13.62 1873.92,-12.01
		1875.77,-5.7 1877.63,-12.25 1879.48,-9.16 1881.32,-6.1 1883.17,-10.1 1885.02,-3.89 1886.87,-14.27 1888.73,-5.16 1890.58,-11.1
		1892.43,-3.54 1894.28,-5.75 1896.14,-5.47 1897.99,-11.53 1899.84,-12.31 1901.69,-7.41 1903.55,-12.96 1905.4,-6.85
		1907.25,-13.98 1909.1,-12.22 1910.95,-10.24 1912.81,-9.97 1914.66,-4.46 1916.52,-7.33 1918.37,-11.98 1920.22,-4.98
		1922.07,-4.32 1923.93,-13.88 1925.78,-11.28 1927.64,-8.91 1929.49,-3.61 1931.34,-11.39 1933.2,-9.34 1935.05,-6.25
		1936.9,-10.32 1938.76,-6.63 1940.61,-14.67 1942.47,-7.2 1944.32,-8.09 1946.18,-8.89 1948.03,-12.43 1949.88,-6.4 1951.73,-6.22
		1953.58,-3.52 1955.43,-6.12 1957.29,-9.12 1959.14,-11.6 1961,-9.46 1962.85,-12.02 1964.7,-9.81 1966.56,-9.83 1968.41,-12.92
		1970.27,-12.88 1972.12,-5.77 1973.98,-12.95 1975.84,-6.85 1977.69,-14.98 1979.55,-14.85 1981.41,-9.07 1983.26,-12.12
		1985.12,-11.21 1986.98,-12.15 1988.83,-15.41 1990.69,-10.38 1992.55,-6.4 1994.41,-6.49 1996.27,-10.01 1998.14,-12.39
		2004.08,-13.57 1994.13,-7.6 1994.06,-5.75 2002.27,-3.91 1999.89,-2.07 1995.2,-0.22 2004.98,1.62 2002.21,3.46 2002.02,5.3
		1994.24,7.15 1995.82,8.99 1997.84,10.83 2004.45,12.68 2002.37,14.52 2001.37,16.36 2005.11,18.2 2005.12,20.04 2002.49,21.89
		2002.62,23.73 1994.67,25.57 1994.54,27.41 1994.94,29.26 2005.58,31.1 2002.63,32.94 1995.48,34.78 2001.12,36.63 1998.49,38.47
		1999.74,40.31 2000,42.16 2005.89,44 1994.74,45.85 1995.21,47.69 2002.06,49.53 2005.66,51.38 2002.85,53.22 2004.84,55.07
		1994.26,56.91 1999.04,58.76 1998.9,60.61 1999.37,62.45 1994.84,64.3 2002.89,66.15 1994.86,67.99 2002.98,69.84 1997.57,71.69
		2002.75,73.53 2002.05,75.38 2001.78,77.23 1994.72,79.07 2004.34,80.92 1995.22,82.76 2000.16,84.61 2001.6,86.45 1999.21,88.3
		2000.63,90.14 2004.88,91.98 2004.95,93.83 1999.27,95.67 2005.42,97.52 1998.8,99.36 2003.65,101.2 2001.13,103.05
		2003.65,104.89 1996.04,106.74 2004.06,108.58 1999.14,110.42 1996.57,112.27 2000.59,114.11 1994.35,115.96 2003.98,117.8
		1998.16,119.65 1996.1,121.49 2000.29,123.34 2005.64,125.18 1995.69,127.03 2004.81,128.87 1994.77,130.72 2005.76,132.57
		2000.35,134.41 1995.5,136.26 2003.48,138.11 1998.11,139.96 2005.54,141.8 2002.24,143.65 1999.12,145.5 1998.17,147.34
		2000.09,149.19 2005.93,151.04 1998.51,152.88 2000.58,154.73 1997.84,156.57 2000.47,158.42 2002.94,160.26 2001.43,162.11
		2002.93,163.95 1999.38,165.8 2004.24,167.64 2000.23,169.49 2004.14,171.33 1996.82,173.18 1996.76,175.02 1998.42,176.87
		2001.72,178.71 1998.8,180.56 2001.89,182.41 2005.35,184.25 2004.08,186.1 1994.62,187.95 1997.24,189.8 1996.49,191.64
		1997.61,193.49 1996.16,195.34 1997.01,197.19 2002.89,199.03 1995.19,200.88 2003.16,202.73 1995.9,204.57 2000.66,206.42
		1998.59,208.27 1998.12,210.11 1998.87,211.96 1995.38,213.8 2004.22,215.65 1996.96,217.5 2005.25,219.34 1994.35,221.19
		1995.58,223.03 1995.06,224.88 2001.39,226.73 1997.45,228.57 2003.87,230.42 2002.7,232.27 1998.46,234.12 1999.63,235.97
		1999.93,237.82 1997.77,239.66 2001.55,241.51 2003.78,243.36 1999.15,245.2 2001.55,247.05 1994.57,248.9 2000.95,250.74
		1998.5,252.59 1997.52,254.44 1995.33,256.28 2000.65,258.13 1995.17,259.98 1995.02,261.83 2001.11,263.67 1996.37,265.52
		1994.18,267.37 2005.66,269.22 1999.14,271.07 1996.85,272.91 2002.37,274.76 1994.34,276.61 1994.33,278.46 1996.3,280.3
		1999.98,282.15 2004.76,284 2000.71,285.84 2002.2,287.69 1995.43,289.54 2005.3,291.39 1996.81,293.24 2005.73,295.09
		1998.51,296.93 2003.17,298.77 1995.53,300.61 2001.55,302.45 2005.44,304.3 1996.63,306.14 2000.69,307.99 2001.97,309.83
		1999.09,311.68 2001.2,313.53 2000.79,315.37 1996.23,317.22 1997.82,319.07 1995.83,320.92 2000.29,322.77 2003.87,324.61
		2000.28,326.46 2000.67,328.3 1998.76,330.15 2005.05,331.99 2003.52,333.84 2000.58,335.68 2002.32,337.53 2004.58,339.37
		2001.88,341.22 1998.05,343.06 2001.74,344.91 2000.78,346.76 1999.86,348.61 2005.54,350.46 2001.54,352.31 1995.75,354.15
		1994.56,356 1997.04,357.85 1998.5,359.7 1998.16,361.54 1996.84,363.39 2000.74,365.23 2005.93,367.08 1999.3,368.93
		1998.83,370.78 2004.72,372.63 1998.14,374.48 2005.34,376.33 2004.9,378.18 2001.45,380.03 2003.35,381.87 1998.63,383.72
		1997.65,385.57 1999.13,387.42 2003.58,389.27 1994.91,391.12 2004.24,392.97 2001.52,394.82 2001.74,396.67 1997.36,398.52
		2002.41,400.37 2000.38,402.22 1998.43,404.07 2002.33,405.92 1999.61,407.77 1994.22,409.62 1998.76,411.47 2001.58,413.32
		2000.54,415.17 2005.29,417.02 1995.47,418.87 2003.98,420.72 2004.61,422.57 2000.67,424.42 2000.99,426.28 1997.55,428.13
		2000.53,429.97 2001.45,431.82 2002.5,433.67 1994.59,435.51 2003.51,437.36 1997.62,439.22 1996.59,441.07 1996.97,442.92
		1994.46,444.77 2000.87,446.62 2001.81,448.47 2000.25,450.32 1998.48,452.17 1996.85,454.03 2001.46,455.88 2005.69,457.73
		1994.07,459.59 1997.07,461.44 2003.09,463.3 2002.89,465.14 1998.45,467 2000.03,468.85 1998.94,470.71 1999.97,472.56
		1996.31,474.42 2001.7,476.28 1999.82,479.98 	"/>
</g>
<path class="st2" d="M40.2,213C97.87,175.03,280.19,62.67,449.81,84.7c18.83,2.44,85.55,12.79,167.22,38.98
	c83.03,26.63,104.32,44.89,147.42,56.37c57.76,15.38,145.77,16.21,273.79-55.28c0,0,123.53-70.69,245.1-50.05
	s319.61,195.15,405.88,185.34s174.35-131.27,174.35-131.27c-5.97,55.81-25.8,137.52-90,180c-108.98,72.11-278.59-13.34-321.6-35
	c-122.93-61.93-142.79-130.36-227.09-128.68c-62.23,1.24-74.79,39-165.06,75.74c-107.95,43.94-205.08,36.78-278.43,31.37
	c-168.6-12.43-204.05-72.19-340.62-97.57C353.32,138.39,220.06,135.43,40.2,213z"/>
<path class="st3" d="M49.92,248.24c57.67-37.97,239.99-150.33,409.61-128.3c18.83,2.44,85.55,12.79,167.22,38.98
	c83.03,26.63,104.32,44.89,147.42,56.37c57.76,15.38,145.77,16.21,273.79-55.28c0,0,123.53-70.69,245.1-50.05
	s319.61,195.15,405.88,185.34s174.35-131.27,174.35-131.27c-5.97,55.81-25.8,137.52-90,180c-108.98,72.11-278.59-13.34-321.6-35
	c-122.93-61.93-142.79-130.36-227.09-128.68c-62.23,1.24-74.79,39-165.06,75.74c-107.96,43.94-205.08,36.78-278.43,31.37
	c-168.6-12.43-204.05-72.19-340.62-97.57C363.04,173.63,229.78,170.66,49.92,248.24z"/>
<path class="st4" d="M72.3,290.8c57.67-37.97,239.99-150.33,409.61-128.3c18.83,2.44,85.55,12.79,167.22,38.98
	c83.03,26.63,104.32,44.89,147.42,56.37c57.76,15.38,145.77,16.21,273.79-55.28c0,0,123.53-70.69,245.1-50.05
	s319.61,195.15,405.88,185.34s174.35-131.27,174.35-131.27c-5.97,55.81-25.8,137.52-90,180c-108.98,72.11-278.59-13.34-321.6-35
	c-122.93-61.93-142.79-130.36-227.09-128.68c-62.23,1.24-74.79,39-165.06,75.74c-107.96,43.94-205.08,36.78-278.43,31.37
	c-168.6-12.43-204.05-72.19-340.62-97.57C385.42,216.2,252.16,213.23,72.3,290.8z"/>
<path class="st5" d="M88.32,328.06c57.67-37.97,239.99-150.33,409.61-128.3c18.83,2.44,85.55,12.79,167.22,38.98
	c83.03,26.63,104.32,44.89,147.42,56.37c57.76,15.38,145.77,16.21,273.79-55.28c0,0,123.53-70.69,245.1-50.05
	s319.61,195.15,405.88,185.34s174.35-131.27,174.35-131.27c-5.97,55.81-25.8,137.52-90,180c-108.98,72.11-278.59-13.34-321.6-35
	c-122.93-61.93-142.79-130.36-227.09-128.68c-62.23,1.24-74.79,39-165.06,75.74c-107.95,43.94-205.08,36.78-278.43,31.37
	c-168.6-12.43-204.05-72.19-340.62-97.57C401.44,253.45,268.18,250.48,88.32,328.06z"/>
<g>
	<g class="st6">
		<path class="st7" d="M127.64,383.17l224.6-270h10.31l6.89,127.97l186.81-127.97h22.74l-151.24,270h-60.19l101.48-165.09
			L304.65,323.41l-14.08-105.33L157.73,383.17H127.64z"/>
		<path class="st7" d="M487.64,383.17l106.29-210.09c8.3-16.4,20.03-30.49,35-42.26c14.71-11.76,28.18-17.65,40.57-17.65h45.47
			c12.39,0,20.85,5.91,25.57,17.72c4.96,11.81,4.74,25.88-0.85,42.19l-72.05,210.09h-59.91l47.7-120.09h-53.64l-54.25,120.09H487.64
			z M615.25,233.27h52.02l23.91-60.19c3.24-8.16,3.65-15.16,1.29-21.02c-2.3-5.86-6.62-8.79-13.01-8.79
			c-6.46,0-13.28,2.93-20.52,8.79c-7.3,5.86-12.82,12.87-16.5,21.02L615.25,233.27z"/>
		<path class="st7" d="M727.54,383.17l21.68-75.09c10.18-35.25,33.56-55.22,69.88-59.91c-33.79-4.69-45.47-24.66-35.29-59.91
			l21.68-75.09h45.26l-21.1,90c-1.91,8.16-1.05,15.21,2.62,21.16c3.74,5.95,9.2,8.93,16.33,8.93c7.05,0,13.72-2.98,19.97-8.93
			c6.18-5.95,9.99-13.01,11.46-21.16l16.2-90h45.26l-9.44,75.09c-4.43,35.25-24.39,55.22-60.12,59.91
			c34.35,4.88,49.45,24.89,45.03,60.05l-9.43,74.95h-59.91l16.2-90c1.48-8.25,0.07-15.33-4.21-21.23c-4.21-5.91-9.93-8.86-17.2-8.86
			c-7.35,0-14.31,2.95-20.93,8.86c-6.68,5.91-11.01,12.99-12.95,21.23l-21.1,90H727.54z"/>
		<path class="st7" d="M1055.61,383.17l-2.24-270h90.74c12.39,0,23.89,5.91,34.68,17.72c11.04,11.81,18.05,25.88,20.84,42.19
			l2.79,16.31c2.3,13.41,0.61,26.32-5.21,38.74c-6.03,12.42-18.57,18.63-37.47,18.63h26.13c7.23,0,13.9,2.95,20.06,8.86
			c6.22,5.91,10.06,12.99,11.47,21.23l18.21,106.31h-59.91l-10.53-90c-0.97-8.25-4.49-15.33-10.52-21.23
			c-5.97-5.91-12.56-8.86-19.83-8.86h-26.82l7.51,120.09H1055.61z M1106.14,233.27h26.01c7.05,0,12.84-2.98,17.32-8.93
			c4.42-5.95,6.12-13.01,5.17-21.16l-3.52-30.09c-0.95-8.16-4.14-15.16-9.52-21.02c-5.32-5.86-11.14-8.79-17.52-8.79h-23.56
			L1106.14,233.27z"/>
		<path class="st7" d="M1279.89,113.17h45.47c12.39,0,25.17,5.91,38.53,17.72c13.6,11.81,23.67,25.88,30.01,42.19l58.34,150.19
			c6.3,16.22,6.03,30.26-1,42.12c-7.29,11.86-19.23,17.79-35.63,17.79h-60.19c-16.41,0-31.98-5.88-46.52-17.65
			c-14.29-11.76-23.2-25.85-26.9-42.26l-33.87-150.19c-3.7-16.4-2.27-30.49,4.09-42.26C1258.34,119.06,1267.5,113.17,1279.89,113.17
			z M1296.65,173.08l42.01,150.19c2.26,8.06,7.02,15.05,14.34,20.95c7.38,5.91,15.15,8.86,23.27,8.86c8.12,0,14.08-2.95,17.83-8.86
			c3.69-5.91,4.17-12.89,1.48-20.95l-50.2-150.19c-2.73-8.16-7.44-15.16-14.09-21.02c-6.59-5.86-13.05-8.79-19.43-8.79
			c-6.46,0-11.14,2.93-14.09,8.79C1294.76,157.92,1294.37,164.92,1296.65,173.08z"/>
		<path class="st7" d="M1563.8,173.08h-24.14c-13.14-20.06-26.06-30.09-38.82-30.09c-8.22,0-13.13,2.53-14.77,7.59
			c-1.69,5.06-0.06,12.61,4.92,22.64c3.73,7.5,9.65,14.53,17.83,21.09l92.88,71.44c18,13.13,31.46,27.24,40.19,42.33l8.78,15.19
			c9.38,16.22,11.8,30.26,7.07,42.12c-4.99,11.86-15.82,17.79-32.32,17.79h-30.09c-19.88,0-37.16-5.01-51.73-15.05
			c-14.38-10.03-25.9-24.98-34.7-44.86h28.46c0.79,2.06,1.47,3.71,2.05,4.92c3.83,8.16,9.76,14.34,17.83,18.56
			c8.11,4.22,15.84,6.33,23.13,6.33c10.4,0,16.55-2.58,18.43-7.73c1.84-5.15,0.16-12.66-5-22.5c-3.98-7.59-10.42-14.62-19.26-21.09
			l-91.51-71.16c-15.94-13.03-27.16-27.14-33.89-42.33l-6.72-15.19c-7.22-16.31-8.86-30.38-5.11-42.19
			c3.5-11.81,11.39-17.72,23.86-17.72h22.74C1512.22,113.17,1538.82,133.14,1563.8,173.08z"/>
		<path class="st7" d="M1733.93,173.08h-24.14c-16.96-20.06-31.78-30.09-44.55-30.09c-8.22,0-12.65,2.53-13.32,7.59
			c-0.73,5.06,2.34,12.61,9.23,22.64c5.15,7.5,12.42,14.53,21.84,21.09l106.47,71.44c20.49,13.13,36.64,27.24,48.24,42.33
			l11.67,15.19c12.47,16.22,17.55,30.26,15.08,42.12c-2.73,11.86-12.44,17.79-28.94,17.79h-30.09c-19.88,0-38.12-5.01-54.59-15.05
			c-16.29-10.03-30.65-24.98-43.23-44.86h28.46c1.18,2.06,2.18,3.71,2.98,4.92c5.38,8.16,12.49,14.34,21.36,18.56
			c8.92,4.22,17.04,6.33,24.34,6.33c10.4,0,16.06-2.58,16.96-7.73c0.85-5.15-2.25-12.66-9.28-22.5
			c-5.42-7.59-13.2-14.62-23.28-21.09l-105.04-71.16c-18.42-13.03-32.33-27.14-41.94-42.33l-9.61-15.19
			c-10.32-16.31-14.64-30.38-13.14-42.19c1.25-11.81,8.02-17.72,20.48-17.72h22.74C1670.96,113.17,1701.35,133.14,1733.93,173.08z"
			/>
	</g>
	<g>
		<g>
			<path class="st0" d="M120.64,376.17l224.6-270h10.31l6.89,127.97l186.81-127.97h22.74l-151.24,270h-60.19l101.48-165.09
				L297.65,316.41l-14.08-105.33L150.73,376.17H120.64z"/>
			<path class="st0" d="M480.64,376.17l106.29-210.09c8.3-16.4,20.03-30.49,35-42.26c14.71-11.76,28.18-17.65,40.57-17.65h45.47
				c12.39,0,20.85,5.91,25.57,17.72c4.96,11.81,4.74,25.88-0.85,42.19l-72.05,210.09h-59.91l47.7-120.09h-53.64l-54.25,120.09
				H480.64z M608.25,226.27h52.02l23.91-60.19c3.24-8.16,3.65-15.16,1.29-21.02c-2.3-5.86-6.62-8.79-13.01-8.79
				c-6.46,0-13.28,2.93-20.52,8.79c-7.3,5.86-12.82,12.87-16.5,21.02L608.25,226.27z"/>
			<path class="st0" d="M720.54,376.17l21.68-75.09c10.18-35.25,33.56-55.22,69.88-59.91c-33.79-4.69-45.47-24.66-35.29-59.91
				l21.68-75.09h45.26l-21.1,90c-1.91,8.16-1.05,15.21,2.62,21.16c3.74,5.95,9.2,8.93,16.33,8.93c7.05,0,13.72-2.98,19.97-8.93
				c6.18-5.95,9.99-13.01,11.46-21.16l16.2-90h45.26l-9.44,75.09c-4.43,35.25-24.39,55.22-60.12,59.91
				c34.35,4.88,49.45,24.89,45.03,60.05l-9.43,74.95h-59.91l16.2-90c1.48-8.25,0.07-15.33-4.21-21.23
				c-4.21-5.91-9.93-8.86-17.2-8.86c-7.35,0-14.31,2.95-20.93,8.86c-6.68,5.91-11.01,12.99-12.95,21.23l-21.1,90H720.54z"/>
			<path class="st0" d="M1048.61,376.17l-2.24-270h90.74c12.39,0,23.89,5.91,34.68,17.72c11.04,11.81,18.05,25.88,20.84,42.19
				l2.79,16.31c2.3,13.41,0.61,26.32-5.21,38.74c-6.03,12.42-18.57,18.63-37.47,18.63h26.13c7.23,0,13.9,2.95,20.06,8.86
				c6.22,5.91,10.06,12.99,11.47,21.23l18.21,106.31h-59.91l-10.53-90c-0.97-8.25-4.49-15.33-10.52-21.23
				c-5.97-5.91-12.56-8.86-19.83-8.86h-26.82l7.51,120.09H1048.61z M1099.14,226.27h26.01c7.05,0,12.84-2.98,17.32-8.93
				c4.42-5.95,6.12-13.01,5.17-21.16l-3.52-30.09c-0.95-8.16-4.14-15.16-9.52-21.02c-5.32-5.86-11.14-8.79-17.52-8.79h-23.56
				L1099.14,226.27z"/>
			<path class="st0" d="M1272.89,106.17h45.47c12.39,0,25.17,5.91,38.53,17.72c13.6,11.81,23.67,25.88,30.01,42.19l58.34,150.19
				c6.3,16.22,6.03,30.26-1,42.12c-7.29,11.86-19.23,17.79-35.63,17.79h-60.19c-16.41,0-31.98-5.88-46.52-17.65
				c-14.29-11.76-23.2-25.85-26.9-42.26l-33.87-150.19c-3.7-16.4-2.27-30.49,4.09-42.26
				C1251.34,112.06,1260.5,106.17,1272.89,106.17z M1289.65,166.08l42.01,150.19c2.26,8.06,7.02,15.05,14.34,20.95
				c7.38,5.91,15.15,8.86,23.27,8.86c8.12,0,14.08-2.95,17.83-8.86c3.69-5.91,4.17-12.89,1.48-20.95l-50.2-150.19
				c-2.73-8.16-7.44-15.16-14.09-21.02c-6.59-5.86-13.05-8.79-19.43-8.79c-6.46,0-11.14,2.93-14.09,8.79
				C1287.76,150.92,1287.37,157.92,1289.65,166.08z"/>
			<path class="st0" d="M1556.8,166.08h-24.14c-13.14-20.06-26.06-30.09-38.82-30.09c-8.22,0-13.13,2.53-14.77,7.59
				c-1.69,5.06-0.06,12.61,4.92,22.64c3.73,7.5,9.65,14.53,17.83,21.09l92.88,71.44c18,13.13,31.46,27.24,40.19,42.33l8.78,15.19
				c9.38,16.22,11.8,30.26,7.07,42.12c-4.99,11.86-15.82,17.79-32.32,17.79h-30.09c-19.88,0-37.16-5.01-51.73-15.05
				c-14.38-10.03-25.9-24.98-34.7-44.86h28.46c0.79,2.06,1.47,3.71,2.05,4.92c3.83,8.16,9.76,14.34,17.83,18.56
				c8.11,4.22,15.84,6.33,23.13,6.33c10.4,0,16.55-2.58,18.43-7.73c1.84-5.15,0.16-12.66-5-22.5c-3.98-7.59-10.42-14.62-19.26-21.09
				l-91.51-71.16c-15.94-13.03-27.16-27.14-33.89-42.33l-6.72-15.19c-7.22-16.31-8.86-30.38-5.11-42.19
				c3.5-11.81,11.39-17.72,23.86-17.72h22.74C1505.22,106.17,1531.82,126.14,1556.8,166.08z"/>
			<path class="st0" d="M1726.93,166.08h-24.14c-16.96-20.06-31.78-30.09-44.55-30.09c-8.22,0-12.65,2.53-13.32,7.59
				c-0.73,5.06,2.34,12.61,9.23,22.64c5.15,7.5,12.42,14.53,21.84,21.09l106.47,71.44c20.49,13.13,36.64,27.24,48.24,42.33
				l11.67,15.19c12.47,16.22,17.55,30.26,15.08,42.12c-2.73,11.86-12.44,17.79-28.94,17.79h-30.09c-19.88,0-38.12-5.01-54.59-15.05
				c-16.29-10.03-30.65-24.98-43.23-44.86h28.46c1.18,2.06,2.18,3.71,2.98,4.92c5.38,8.16,12.49,14.34,21.36,18.56
				c8.92,4.22,17.04,6.33,24.34,6.33c10.4,0,16.06-2.58,16.96-7.73c0.85-5.15-2.25-12.66-9.28-22.5
				c-5.42-7.59-13.2-14.62-23.28-21.09l-105.04-71.16c-18.42-13.03-32.33-27.14-41.94-42.33l-9.61-15.19
				c-10.32-16.31-14.64-30.38-13.14-42.19c1.25-11.81,8.02-17.72,20.48-17.72h22.74C1663.96,106.17,1694.35,126.14,1726.93,166.08z"
				/>
		</g>
	</g>
</g>
</svg>
