<?xml version="1.0" encoding="utf-8"?>
<!-- Generator: Adobe Illustrator 25.2.0, SVG Export Plug-In . SVG Version: 6.00 Build 0)  -->
<svg version="1.1" id="Layer_1" xmlns="http://www.w3.org/2000/svg" xmlns:xlink="http://www.w3.org/1999/xlink" x="0px" y="0px"
	 viewBox="0 0 100 100" style="enable-background:new 0 0 100 100;" xml:space="preserve">
<style type="text/css">
	.st0{fill:#F8FF75;}
	.st1{fill:#FF4D55;}
	.st2{fill:#73FF9F;}
	.st3{fill:#8FDDFF;}
	.st4{opacity:0.43;fill:#F8FF75;}
	.st5{opacity:0.43;fill:#FF4D55;}
	.st6{opacity:0.43;fill:#73FF9F;}
</style>
<g>
	<polygon class="st0" points="52,69.5 67.7,42.4 52,51.4 	"/>
	<polygon class="st1" points="35.3,40.7 51,49.7 66.7,40.7 	"/>
	<polygon class="st2" points="50,69.5 50,51.4 34.3,42.4 	"/>
	<polygon class="st3" points="70.4,41.7 52.7,72.3 88,72.3 	"/>
	<polygon class="st0" points="76.8,48.9 87,31.2 71.8,40 	"/>
	<polygon class="st1" points="86,29.5 65.7,29.5 70.8,38.3 	"/>
	<polygon class="st3" points="68.7,38.7 51,8.1 33.3,38.7 	"/>
	<polygon class="st1" points="36.3,29.5 16,29.5 31.2,38.3 	"/>
	<polygon class="st2" points="30.2,40 15,31.2 25.1,48.9 	"/>
	<polygon class="st3" points="31.6,41.7 14,72.3 49.3,72.3 	"/>
	<polygon class="st2" points="50,91.9 50,74.3 39.8,74.3 	"/>
	<polygon class="st0" points="52,91.9 62.2,74.3 52,74.3 	"/>
	<polygon class="st4" points="75.7,50.9 63.3,72.3 52.7,72.3 70.4,41.7 	"/>
</g>
<polygon class="st5" points="38.7,29.5 63.3,29.5 68.7,38.7 33.3,38.7 "/>
<polygon class="st6" points="26.3,50.9 38.7,72.3 49.3,72.3 31.6,41.7 "/>
</svg>
